<?xml version="1.0" standalone="no"?>
<!DOCTYPE svg PUBLIC "-//W3C//DTD SVG 1.1//EN" "http://www.w3.org/Graphics/SVG/1.1/DTD/svg11.dtd" >
<svg>
<metadata>
Created by FontForge 20090914 at Wed Dec 13 06:03:52 2017
 By www-data
Copyright (c) 1999-2003 IDAutomation.com, Inc. [A license is required for each computer using this font.]
</metadata>
<defs>
<font id="IDAutomationOCRa" horiz-adv-x="786" >
  <font-face 
    font-family="IDAutomationOCRa"
    font-weight="400"
    font-stretch="normal"
    units-per-em="1000"
    panose-1="2 0 5 6 0 0 0 2 0 4"
    ascent="800"
    descent="-200"
    x-height="643"
    cap-height="887"
    bbox="9 -274.002 646 1290"
    underline-thickness="50"
    underline-position="-30"
    unicode-range="U+0020-U+2019"
  />
<missing-glyph horiz-adv-x="500" 
d="M63 0v900h375v-900h-375zM125 63h250v775h-250v-775z" />
    <glyph glyph-name=".notdef" horiz-adv-x="500" 
d="M63 0v900h375v-900h-375zM125 63h250v775h-250v-775z" />
    <glyph glyph-name="space" unicode=" " 
 />
    <glyph glyph-name="exclam" unicode="!" 
d="M400 794c0 -28.667 -5.33203 -103.667 -15.999 -225c-2 -32 -4.33301 -64 -7 -96c-2.66699 -38 -7.66699 -69.667 -15 -95c-4.66699 -16 -8.33398 -25.667 -11.001 -29c-4.66699 -4 -14.667 -6 -30 -6c-20 0 -33.333 4 -40 12c-11.333 14 -17.333 24.667 -18 32l-26 387
c-0.666992 6.66699 -1 12.667 -1 18l1 37c13.333 29.333 26 44 38 44h81c29.333 0 44 -26.333 44 -79zM397.001 79c0 -31.333 -5.66797 -52.333 -17.001 -63s-32.666 -16 -63.999 -16h-32c-12.667 0 -23.167 4.16699 -31.5 12.5s-12.5 18.833 -12.5 31.5v72
c0 27.333 19.333 41.333 58 42h25c49.333 0 74 -15.667 74 -47v-32z" />
    <glyph glyph-name="quotedbl" unicode="&#x22;" 
d="M588 878c0 -32 -8.99902 -96.332 -26.999 -192.999c-19.333 -103.333 -35 -159 -47 -167c-6 -4.66699 -17.333 -7 -34 -7h-9c-22.667 0 -37.667 11.333 -45 34l-10 62l-23 99c-6.66699 32 -13.5 51.167 -20.5 57.5s-25.5 9.5 -55.5 9.5
c-8.66699 0 -21.167 -1.5 -37.5 -4.5s-28.833 -4.5 -37.5 -4.5c-13.333 -4.66699 -25 -40.334 -35 -107.001c-11.333 -72 -20.333 -113 -27 -123c-10.667 -15.333 -25 -23 -43 -23c-28.667 0 -45.334 11.667 -50.001 35l-55 273c-2 10.667 -3 26.667 -3 48
c0 22.667 6 34 18 34h523c12 0 18 -7.66699 18 -23z" />
    <glyph glyph-name="numbersign" unicode="#" 
d="M594 380c0 -14 -6.00195 -28.332 -18.002 -42.999c-6 -3.33301 -23.333 -7.66602 -52 -12.999c-24 -4.66699 -38.667 -11 -44 -19v-96c0 -48.667 -12.667 -73 -38 -73c-46.667 0 -70 17.333 -70 52v111c0 13.333 -13.333 20 -40 20c-30.667 0 -54 -1 -70 -3
c-8 -7.33301 -12 -12 -12 -14v-134c0 -10 -6 -18.833 -18 -26.5s-23.333 -11.5 -34 -11.5c-37.333 0 -56 29.667 -56 89c0 6.66699 0.333008 15.667 1 27s1 19 1 23c0 26.667 -4.33301 42.334 -13 47.001c-68 0 -102 18.667 -102 56c0 26.667 11 44 33 52
c6 2.66699 28 5.66699 66 9l12 11c2 37.333 3 66.666 3 87.999c0 15.333 -9.5 24.833 -28.5 28.5s-37.5 6.83398 -55.5 9.50098c-20 6.66699 -30 21 -30 43c0 24.667 8.33301 41 25 49c8.66699 4 25.334 6.66699 50.001 8c20 1.33301 32 5.66602 36 12.999
c0 11.333 0.5 29.166 1.5 53.499s1.5 42.5 1.5 54.5c0 50 17.333 75 52 75c38.667 0 58 -17.333 58 -52v-117c0 -15.333 10.333 -23 31 -23c31.333 0 56 1 74 3c4 2.66699 8 7.66699 12 15l5 139c0.666992 23.333 22.667 35 66 35h7c21.333 -12.667 32 -26.334 32 -41.001
c0 -56 1 -103.333 3 -142l6 -6l76 -6c6 -0.666992 12.333 -6 19 -16s10 -18 10 -24c0 -26 -7.66699 -44 -23 -54c-12 -8 -31.333 -12 -58 -12c-19.333 0 -30.666 -6.66699 -33.999 -20c-0.666992 -2 -1 -17 -1 -45c0 -46.667 6.66699 -70 20 -70h19
c8.66699 0.666992 15 1 19 1c38.667 0 58 -17 58 -51zM345.998 564.001l-72 -0.00195312c-16 0 -24 -11.667 -24 -35c0 -9.33301 0.5 -23.666 1.5 -42.999s1.5 -33.333 1.5 -42c5.33301 -10.667 25.666 -16 60.999 -16c22.667 0 37.334 2 44.001 6c10 6 15 19.333 15 40
c0 3.33301 -0.333008 8.33301 -1 15v16c0 22.667 -0.333008 35.334 -1 38.001c-2.66699 14 -11 21 -25 21z" />
    <glyph glyph-name="dollar" unicode="$" 
d="M597 381c0 -16.667 -0.50293 -41.332 -1.50293 -73.999s-1.5 -57.334 -1.5 -74.001s-15.667 -30.334 -47 -41.001c-8 0.666992 -16 1 -24 1c-12 0 -36.333 -1 -73 -3c-30 -1.33301 -54 -1.66602 -72 -0.999023c-9.33301 -10 -14 -20.667 -14 -32v-119
c0 -10 -6.16699 -18.833 -18.5 -26.5s-23.833 -11.5 -34.5 -11.5c-35.333 0 -53 30 -53 90v25c0.666992 10.667 1 18 1 22c0 7.33301 -1 20 -3 38l-12 11c-21.333 2 -68.666 3 -141.999 3c-46.667 0 -70 19.333 -70 58c0 16.667 9 29.667 27 39c14 7.33301 30.333 11 49 11
c24.667 0 61.334 -0.333008 110.001 -1s85.334 -1 110.001 -1c81.333 0 128.333 1.66699 141 5s19 13.666 19 30.999c0 18.667 -1.33301 31 -4 37c-4 10.667 -14 16 -30 16h-367c-14 0 -27.167 5.16699 -39.5 15.5s-18.5 22.5 -18.5 36.5v204
c0 8.66699 5.16699 17.667 15.5 27s19.833 14 28.5 14h163c5.33301 0 10 3 14 9s6 11.667 6 17v117c0 14.667 5.5 26.5 16.5 35.5s23.833 13.5 38.5 13.5c14 0 26.833 -4.66699 38.5 -14s17.5 -21 17.5 -35v-120c0 -4.66699 2.16699 -9.66699 6.5 -15s8.83301 -8 13.5 -8
h172c14 -7.33301 23.333 -14.166 28 -20.499s7 -16.833 7 -31.5c0 -35.333 -34.667 -53 -104 -53c-32 0 -80.5 1 -145.5 3s-113.833 3 -146.5 3c-32 0 -51.167 -3.33301 -57.5 -10s-9.5 -26 -9.5 -58v-5c2 -4 6 -9.66699 12 -17h392c28 0 46.333 -12.667 55 -38
c4.66699 -14 7 -38.333 7 -73z" />
    <glyph glyph-name="percent" unicode="%" 
d="M588 729c0 -12.667 -36 -64.668 -108 -156.001l-332 -422c-24.667 -32.667 -47 -49 -67 -49c-14 0 -26.167 5.5 -36.5 16.5s-15.5 23.833 -15.5 38.5c0 9.33301 6 22 18 38l392 503l40 55c19.333 22 38 33 56 33c13.333 0 25.5 -6.16699 36.5 -18.5
s16.5 -25.166 16.5 -38.499zM253 747.999c0 -18.667 -5.66699 -35 -17 -49s-26 -21 -44 -21h-108c-13.333 0 -25.333 5.83301 -36 17.5s-16 24.167 -16 37.5v96c0 37.333 29.333 56 88 56c86.667 0 130 -12.667 130 -38v-70c0 -1.33301 -0.5 -3.33301 -1.5 -6
s-1.5 -4.66699 -1.5 -6c0 -2 1 -4.83301 3 -8.5s3 -6.5 3 -8.5zM538 -0.000976562l-119 0.000976562c-10 0 -20.667 5 -32 15s-17 19.667 -17 29v119c0 27.333 33.667 41 101 41h36c36 0 62 -9.66699 78 -29v-4c0 -2.66699 1 -9.33398 3 -20.001c1.33301 -6 2 -21.667 2 -47
c0 -36 -0.333008 -56.333 -1 -61c-4.66699 -24.667 -16.667 -37 -36 -37c-2 0 -4.5 -1 -7.5 -3s-5.5 -3 -7.5 -3z" />
    <glyph glyph-name="ampersand" unicode="&#x26;" 
d="M597 244c0 -16.667 -11.668 -33.166 -35.001 -49.499s-35 -31.833 -35 -46.5c29.333 -26 44 -39.333 44 -40c15.333 -16.667 23 -34.334 23 -53.001c0 -32.667 -17.667 -49 -53 -49c-17.333 0 -35.666 11.167 -54.999 33.5s-35 33.5 -47 33.5
c-18 0 -41 -12.167 -69 -36.5s-52.333 -36.5 -73 -36.5h-111c-16 0 -37.333 8.16699 -64 24.5s-45 31.5 -55 45.5c-2.66699 4 -10.334 19.333 -23.001 46c-10 21.333 -15 35 -15 41v90c0 20.667 19.333 47.5 58 80.5s58 51.833 58 56.5c0 11.333 -17.833 36.833 -53.5 76.5
s-54.5 64 -56.5 73s-3 22.167 -3 39.5c0 142 55.333 213 166 213c7.33301 0 18.333 0.333008 33 1h33c57.333 0 102.333 -8 135 -24c40 -20 68 -55 84 -105v-128c0 -13.333 -25.667 -39.5 -77 -78.5s-77 -68.167 -77 -87.5c6 -7.33301 14.667 -19 26 -35
c2 -1.33301 17.333 -16 46 -44c23.333 -23.333 38 -35 44 -35c10.667 0 24.834 8.33301 42.501 25s33.5 25 47.5 25c41.333 0 62 -18.667 62 -56zM371.999 576.001v53.001c0 32.667 -33.667 49 -101 49c-46 0 -73.333 -2 -82 -6c-18.667 -3.33301 -31 -9.5 -37 -18.5
s-9 -22.833 -9 -41.5c0 -14.667 1.66699 -33.334 5 -56.001l47 -51c24.667 -26 41 -39 49 -39s31.333 16.667 70 50s58 53.333 58 60zM348.999 183.002l-93.002 98.999c-4 4 -10.667 6 -20 6c-11.333 0 -29.666 -8.66699 -54.999 -26s-38 -31 -38 -41v-26
c0 -32.667 9 -55.334 27 -68.001c14.667 -9.33301 39.334 -14 74.001 -14h32c25.333 12.667 41.333 21.334 48 26.001c16.667 12.667 25 27.334 25 44.001z" />
    <glyph glyph-name="quotesingle" unicode="'" 
d="M428 854c0 -15.333 -3.99902 -33.9971 -11.999 -55.9971l-20 -55l-46 -139c-17.333 -54.667 -29 -102.334 -35 -143.001l-25 -48c-12 -18.667 -26 -28 -42 -28c-12.667 0 -27.334 10.667 -44.001 32v282c0 4.66699 0.5 11.667 1.5 21s1.5 16.666 1.5 21.999
c0 8.66699 -0.5 22.167 -1.5 40.5s-1.5 32.166 -1.5 41.499c0 52.667 13.667 79 41 79h122c15.333 0 29.333 -4.33301 42 -13s19 -20.667 19 -36z" />
    <glyph glyph-name="parenleft" unicode="(" 
d="M488 821c0 -16 -7.99805 -33.332 -23.998 -51.999l-40 -44c-6.66699 -10 -17.334 -24.167 -32.001 -42.5l-44 -53.5c-18 -22.667 -28.667 -42.167 -32 -58.5s-5 -51.5 -5 -105.5c0 -14 0.333008 -35.333 1 -64s1 -50 1 -64c0 -31.333 6.33301 -56.333 19 -75l51 -58
c4 -11.333 22.667 -36 56 -74c30.667 -35.333 46 -59.333 46 -72c0 -23.333 -7 -39.333 -21 -48c-10.667 -6.66699 -28 -10 -52 -10c-20 10 -41.667 32 -65 66l-54 79c-14.667 14.667 -34.334 38 -59.001 70c-15.333 25.333 -23 45 -23 59v317
c4 5.33301 7.66699 15.166 11 29.499s7.33301 24.833 12 31.5l155 201c8.66699 11.333 24 17 46 17c35.333 0 53 -16.333 53 -49z" />
    <glyph glyph-name="parenright" unicode=")" 
d="M423 323c0 -24 -4.66602 -49.335 -13.999 -76.002c-6 -16 -17 -34 -33 -54l-40 -48l-49 -68c-19.333 -27.333 -37 -49 -53 -65c-8 -8 -20.667 -12 -38 -12c-14.667 0 -27 4.16699 -37 12.5s-15 19.833 -15 34.5c0 13.333 3 24 9 32l87 119l12 12
c8.66699 8.66699 20.334 24.334 35.001 47.001c17.333 25.333 26 41.666 26 48.999v249c0 17.333 -4 31.333 -12 42l-108 142c-34.667 45.333 -52 74.333 -52 87c0 22 8 36.333 24 43c9.33301 4.66699 26.666 7 51.999 7c9.33301 -4 27.666 -22.333 54.999 -55l52 -67
c34 -40.667 53.667 -64.667 59 -72c24.667 -34 37 -60.667 37 -80v-247c0 -3.33301 0.5 -8.66602 1.5 -15.999s1.5 -12.666 1.5 -15.999z" />
    <glyph glyph-name="asterisk" unicode="*" 
d="M597 228c0 -16 -5.83203 -30.6641 -17.499 -43.9971s-25.5 -20 -41.5 -20c-12.667 0 -23.334 4 -32.001 12l-113 102c-2 4 -7 6 -15 6c-6 0 -9.66699 -5 -11 -15c-2 -17.333 -3 -64 -3 -140c0 -14 -10.667 -30.333 -32 -49h-38c-6.66699 0 -14.167 4.66699 -22.5 14
s-12.5 17.333 -12.5 24v137c0 15.333 -6.66699 23 -20 23c0.666992 0 -3.33301 -1 -12 -3c-1.33301 -1.33301 -14 -13 -38 -35l-49 -47c-22 -19.333 -40.667 -29 -56 -29c-14.667 0 -27.5 6.16699 -38.5 18.5s-16.5 25.833 -16.5 40.5c0 19.333 16 43.666 48 72.999
c10 9.33301 40 33.666 90 72.999c32 25.333 48 42.333 48 51v6c-4.66699 5.33301 -40.334 35.333 -107.001 90c-50.667 42 -76 73.333 -76 94c0 36.667 20.333 55 61 55c10.667 0 22.334 -5 35.001 -15l29 -26l85 -70h2c11.333 0 17 12.667 17 38
c0 9.33301 -0.666992 23.166 -2 41.499s-2 31.833 -2 40.5c0 58 18 87 54 87c13.333 0 26 -3.66699 38 -11s18 -17.333 18 -30v-157c0 -6 3.66699 -9 11 -9c14 0 38.167 18.5 72.5 55.5s62.5 55.5 84.5 55.5c16.667 0 31.167 -4.33301 43.5 -13s18.5 -21 18.5 -37
c0 -20.667 -12.333 -41.667 -37 -63l-62 -47c-36.667 -28.667 -67 -56 -91 -82v-3c0 -12.667 31.667 -43 95 -91s95 -81.667 95 -101z" />
    <glyph glyph-name="plus" unicode="+" 
d="M588 452c0 -28 -20.333 -46.332 -61 -54.999c-9.33301 1.33301 -22.333 2 -39 2c-86.667 0 -130 -5.33301 -130 -16v-172c0 -8.66699 -6 -16.667 -18 -24s-22.667 -11 -32 -11c-12 0 -23.667 4.33301 -35 13s-17 19 -17 31v151c0 17.333 -8.66699 26 -26 26h-143
c-18 0 -32.167 6 -42.5 18s-15.5 27.333 -15.5 46c0 32.667 28.333 49 85 49c10 0 24.833 -0.666992 44.5 -2s34.5 -2 44.5 -2c35.333 0 53 8.33301 53 25v151c0 33.333 19.333 50 58 50c32 0 48 -26.333 48 -79c0 -7.33301 -0.333008 -17 -1 -29s-1 -20 -1 -24
c0 -47.333 1.33301 -74.333 4 -81c1.33301 -2.66699 5 -5.33398 11 -8.00098c7.33301 0 18.5 -0.5 33.5 -1.5s26.167 -1.5 33.5 -1.5s18 0.333008 32 1s24.667 1 32 1c54.667 0 82 -19.333 82 -58z" />
    <glyph glyph-name="comma" unicode="," 
d="M377 4c-12.667 0 -26.5 5.66699 -41.5 17s-22.5 23 -22.5 35v172c0 12 -9 19 -27 21c5.33301 -0.666992 -10 -1 -46 -1c-42.667 0 -70 6.66699 -82 20c-9.33301 12 -14 39.667 -14 83v14c0 8.66699 6.33301 17.167 19 25.5s23.667 12.5 33 12.5h236
c9.33301 0 19 -4.5 29 -13.5s16 -18.167 18 -27.5c2 -12 3 -31.667 3 -59v-79c0 -4.66699 -0.5 -12 -1.5 -22s-1.5 -17.667 -1.5 -23v-120c0 -36.667 -34 -55 -102 -55z" />
    <glyph glyph-name="hyphen" unicode="-" 
d="M594 458c0 -38.667 -31 -58 -93 -58h-207c-7.33301 0 -18 -0.5 -32 -1.5s-24.667 -1.5 -32 -1.5c-74 0 -124.333 2 -151 6c-13.333 2 -25 7.5 -35 16.5s-15 19.833 -15 32.5c0 27.333 9.33301 45 28 53c9.33301 4 30 6 62 6c14.667 0 37 0.333008 67 1s52.333 1 67 1
c12.667 0 31.167 -0.5 55.5 -1.5s42.833 -1.5 55.5 -1.5h189c10.667 0 20.167 -5.83301 28.5 -17.5s12.5 -23.167 12.5 -34.5z" />
    <glyph glyph-name="period" unicode="." 
d="M426 132c0 -7.33301 -6.16699 -16 -18.5 -26s-22.166 -15 -29.499 -15h-139c-8.66699 0 -17.667 3.5 -27 10.5s-14 14.5 -14 22.5v139c0 6.66699 4.66699 13.667 14 21s17.333 11 24 11h151c7.33301 0 15.666 -4.5 24.999 -13.5s14 -17.167 14 -24.5v-125z" />
    <glyph glyph-name="slash" unicode="/" 
d="M588 806l-224.002 -371.999c-1.33301 -1.33301 -16.666 -31 -45.999 -89c-22 -42.667 -39.667 -68.334 -53 -77.001c-9.33301 -25.333 -25 -54.666 -47 -87.999l-55 -84l-32 -60c-15.333 -24 -32.666 -36 -51.999 -36c-13.333 0 -25 6.33301 -35 19s-15 25.667 -15 39
c0 12 1 22.667 3 32c16.667 19.333 34 44.666 52 75.999l44 81l40 63l15 30l213 353c4 9.33301 10.333 23 19 41c45.333 94.667 87.333 142 126 142c20 0 33.333 -7.33301 40 -22c4.66699 -9.33301 7 -25.333 7 -48z" />
    <glyph glyph-name="zero" unicode="0" 
d="M600 102c0 -26.667 -11.332 -50.332 -33.999 -70.999s-47.334 -31 -74.001 -31h-377c-12 0 -29.333 8.66699 -52 26s-34 32 -34 44v728c0 21.333 9.66699 42.333 29 63s39.666 31 60.999 31h393c12 0 25.5 -4.83301 40.5 -14.5s26.167 -19.834 33.5 -30.501
c2.66699 -7.33301 7.33398 -18 14.001 -32v-713zM492.001 123.002l-0.000976562 645.999c0 10 -6 15 -18 15h-320c-3.33301 0 -7.5 -2.83301 -12.5 -8.5s-7.5 -10.167 -7.5 -13.5v-643c0 -4 4.66699 -8.66699 14 -14h323c4.66699 0 9.33398 1.83301 14.001 5.5
s7 7.83398 7 12.501z" />
    <glyph glyph-name="one" unicode="1" 
d="M601 39c0 -9.33301 -6.33301 -18.168 -19 -26.501s-23.667 -12.5 -33 -12.5h-488c-10 0 -18.5 6.33301 -25.5 19s-10.5 24.334 -10.5 35.001c0 17.333 14.333 33.666 43 48.999h171c2.66699 0 7 3.16699 13 9.5s9 10.833 9 13.5v643
c0 2.66699 -2.16699 5.83398 -6.5 9.50098s-8.16602 5.5 -11.499 5.5h-175c-25.333 17.333 -38 36 -38 56c0 14.667 5.66699 26.834 17 36.501s24.333 14.5 39 14.5h270c5.33301 -1.33301 10.333 -4.33301 15 -9v-770c9.33301 -4.66699 14.666 -7 15.999 -7h84l20 18v232
c0 25.333 26 38 78 38c21.333 -8.66699 32 -20.334 32 -35.001v-319z" />
    <glyph glyph-name="two" unicode="2" 
d="M608 495c0 -25.333 -11.833 -49.5 -35.5 -72.5s-48.167 -34.5 -73.5 -34.5h-351l-11 -16v-256l7 -9h411c12.667 0 24.167 -6.5 34.5 -19.5s15.5 -25.833 15.5 -38.5s-4.66699 -24 -14 -34s-20.333 -15 -33 -15h-505c-16 0 -24 5.66699 -24 17v390
c0 24 13.333 45.333 40 64c24.667 16.667 49.667 25 75 25h334c9.33301 8 14 13.667 14 17v259l-11 12h-403c-14 0 -25.833 6.5 -35.5 19.5s-14.5 26.833 -14.5 41.5c0 11.333 4.83301 21.833 14.5 31.5s20.167 14.5 31.5 14.5h440c22 0 43.167 -10.167 63.5 -30.5
s30.5 -41.5 30.5 -63.5v-302z" />
    <glyph glyph-name="three" unicode="3" 
d="M601 546c0 -18.667 -6.49902 -39.666 -19.499 -62.999s-19.5 -37 -19.5 -41c0 -7.33301 5.83301 -19.666 17.5 -36.999s17.5 -32.333 17.5 -45v-255c0 -26 -10.167 -50 -30.5 -72s-43.5 -33 -69.5 -33h-429c-10.667 0 -20.334 5.83301 -29.001 17.5
s-13 22.834 -13 33.501c0 12 4.66699 24.333 14 37s19.666 19 30.999 19h409c6.66699 7.33301 10 12.666 10 15.999v202c0 14.667 -7.16699 29 -21.5 43s-28.833 21 -43.5 21h-235c-9.33301 0 -19.166 5.16699 -29.499 15.5s-15.5 20.166 -15.5 29.499
c0 15.333 4.5 29.666 13.5 42.999s20.833 20 35.5 20h244c13.333 0 25.333 7.66699 36 23s16 30 16 44v193c0 5.33301 -2.66699 10.333 -8 15s-10.666 7 -15.999 7h-374c-14.667 0 -28.667 5.16699 -42 15.5s-20 22.5 -20 36.5c0 39.333 16 59 48 59h409
c39.333 0 72.666 -19 99.999 -57c9.33301 -12.667 14 -23 14 -31v-256z" />
    <glyph glyph-name="four" unicode="4" 
d="M544 345c0 -15.333 -9.66699 -29 -29 -41s-29 -22 -29 -30v-232c0 -10.667 -6.66699 -20.334 -20 -29.001s-25.666 -13 -36.999 -13c-19.333 0 -38 11.667 -56 35v246l-12 9h-308c-6 2.66699 -14 8 -24 16v547c0 12 7.33301 21.667 22 29c12 6 24.667 9 38 9
c14 0 26.333 -4.33301 37 -13s16 -19.667 16 -33v-434l9 -7h210c3.33301 0 7.33301 2.33301 12 7v347c0 8 8.33301 16 25 24c14.667 7.33301 26.667 11 36 11c17.333 0 34.666 -11.667 51.999 -35v-337c0 -6.66699 9.66699 -17.167 29 -31.5s29 -29.166 29 -44.499z" />
    <glyph glyph-name="five" unicode="5" 
d="M610 842c0 -13.333 -4.50098 -26.667 -13.501 -40s-19.833 -20 -32.5 -20h-280c-2 0 -6 -3.16699 -12 -9.5s-9 -10.5 -9 -12.5v-246c0 -2.66699 2.33301 -6.5 7 -11.5s8.33398 -7.5 11.001 -7.5h224c25.333 0 48.5 -9.16699 69.5 -27.5s31.5 -39.833 31.5 -64.5v-305
c0 -25.333 -11.667 -48 -35 -68s-47.666 -30 -72.999 -30h-315c-4.66699 -0 -14.334 2.33301 -29.001 7c-37.333 12 -64 22.667 -80 32c-30.667 18 -46 40 -46 66c0 14.667 7 26.334 21 35.001c12 7.33301 26 11 42 11c14.667 0 34.667 -7 60 -21s45.333 -21 60 -21h266
l14 14v252l-11 12h-304c-5.33301 0 -11.333 3.66699 -18 11s-10 13.666 -10 18.999v448c0 16 10.333 24 31 24h399c8.66699 0 16.167 -5.5 22.5 -16.5s9.5 -21.167 9.5 -30.5z" />
    <glyph glyph-name="six" unicode="6" 
d="M603 36c0 -6.66699 -4.83301 -14.333 -14.5 -23s-17.834 -13 -24.501 -13h-485c-12 0 -23.333 4 -34 12s-16 17.667 -16 29v803c0 12 5.83301 22.833 17.5 32.5s23.5 14.5 35.5 14.5h77c11.333 0 21 -4.83301 29 -14.5s12 -20.5 12 -32.5c0 -20 -9.33301 -36.5 -28 -49.5
s-28 -21.167 -28 -24.5v-364c5.33301 -6 9.33301 -9 12 -9h408c6.66699 0 14.834 -4 24.501 -12s14.5 -15 14.5 -21v-328zM490 130.001v151l-11 9h-323c-1.33301 0 -2.83301 -0.5 -4.5 -1.5s-3.16699 -1.5 -4.5 -1.5l-3 -3v-166l12 -8h317c4 0 7.83301 2.33301 11.5 7
s5.5 9 5.5 13z" />
    <glyph glyph-name="seven" unicode="7" 
d="M609 548c0 -28.667 -11.999 -51 -35.999 -67c-4 -2 -10 -5.33301 -18 -10l-121 -101c-4.66699 -2.66699 -11.334 -7 -20.001 -13c-0.666992 -0.666992 -14.667 -17 -42 -49v-272c0 -12 -6.66699 -21.333 -20 -28c-10.667 -5.33301 -22.667 -8 -36 -8
c-12 0 -23.667 2.66699 -35 8c-14.667 6.66699 -22 15 -22 25v328c0 6 38.5 40.5 115.5 103.5s115.5 98.5 115.5 106.5v199c0 5.33301 -6.66699 8 -20 8h-305c-4 0 -15.167 -7.33301 -33.5 -22s-41.833 -22 -70.5 -22c-21.333 8.66699 -32 22.667 -32 42v74
c0 8 6.66699 16.333 20 25s24.333 13 33 13h509c12 0 18 -6 18 -18v-322z" />
    <glyph glyph-name="eight" unicode="8" 
d="M603 92c0 -17.333 -9.99902 -37.001 -29.999 -59.001s-38.667 -33 -56 -33h-400c-6.66699 0 -21.334 7 -44.001 21c-29.333 18.667 -44 48.334 -44 89.001v281c0 29.333 10.333 52.666 31 69.999c6.66699 5.33301 29.667 18.333 69 39c12 6 18 10 18 12v340
c14 24 26.667 36 38 36h267c6 0 14.333 -4.83301 25 -14.5s16 -17.5 16 -23.5l3 -353c71.333 -21.333 107 -58.666 107 -111.999v-293zM490.001 126.999l-0.000976562 240c0 4 -2.33301 8.5 -7 13.5s-9 7.5 -13 7.5h-314c-1.33301 0 -3.66602 -2 -6.99902 -6s-5 -7 -5 -9
v-252c0 -6 2 -9 6 -9c2 -1.33301 5 -2 9 -2h314c11.333 0 17 5.66699 17 17zM378 511.999l-0.00195312 246c0 5.33301 -2.16699 10.5 -6.5 15.5s-9.16602 7.5 -14.499 7.5h-80c-1.33301 0 -4.16602 -2.33301 -8.49902 -7s-6.5 -8 -6.5 -10v-249c0 -12.667 19.667 -19 59 -19
c38 0 57 5.33301 57 16z" />
    <glyph glyph-name="nine" unicode="9" 
d="M603 44c0 -8 -6.00098 -17.334 -18.001 -28.001s-22 -16 -30 -16h-88c-24 0 -36 16.667 -36 50c0 17.333 5 31 15 41c4.66699 4.66699 13.334 10 26.001 16c10 4.66699 15 9.33398 15 14.001v356c-6 2.66699 -10.667 6.33398 -14 11.001h-400
c-9.33301 0 -19 5.66699 -29 17s-15 21.666 -15 30.999v308c0 10 4.5 20.333 13.5 31s18.167 16 27.5 16h494c6 0 14 -4 24 -12s15 -15 15 -21v-814zM489.999 615.999v151.001c0 9.33301 -8.66699 14 -26 14h-305l-15 -14v-151c0 -2.66699 2 -6.33398 6 -11.001s7 -7 9 -7
h317c2 0 4.83301 2.5 8.5 7.5s5.5 8.5 5.5 10.5z" />
    <glyph glyph-name="colon" unicode=":" 
d="M439 590c0 -5.33301 -5 -12.001 -15 -20.001s-17.667 -12 -23 -12h-131c-22 0 -40.333 19.333 -55 58c0 8 -0.333008 20.333 -1 37v38c0 28.667 9 50.334 27 65.001c8.66699 2 12.667 3 12 3h148c7.33301 0 15.5 -4.5 24.5 -13.5s13.5 -17.167 13.5 -24.5v-131z
M436 177.999c0 -9.33301 -5.66699 -19 -17 -29s-22 -15 -32 -15h-117c-36.667 0 -55 29.667 -55 89v30c0 54.667 16.667 82 50 82h125c7.33301 0 16.833 -3.33301 28.5 -10s17.5 -13 17.5 -19v-128z" />
    <glyph glyph-name="semicolon" unicode=";" 
d="M514 45c0 -11.333 -6 -21.667 -18 -31s-23.667 -14 -35 -14c-10 0 -21.167 5.5 -33.5 16.5s-18.5 21.5 -18.5 31.5v227c0 2 -2 6 -6 12s-6.66699 9 -8 9h-162c-5.33301 0 -15.5 5.66699 -30.5 17s-22.5 27.666 -22.5 48.999c0 10 3.83301 19.5 11.5 28.5
s16.5 13.5 26.5 13.5h246c8 0 18.333 -3.66699 31 -11s19 -14.666 19 -21.999v-326zM398 633.999c0 -9.33301 -6.50195 -17.668 -19.502 -25.001s-24.5 -11 -34.5 -11h-111c-9.33301 0 -20.5 5.33301 -33.5 16s-19.5 20.667 -19.5 30v110
c0 10.667 4.83301 21.334 14.5 32.001s19.834 16 30.501 16h128c8.66699 0 18.334 -2.5 29.001 -7.5s16 -11.5 16 -19.5v-141z" />
    <glyph glyph-name="less" unicode="&#x3c;" 
d="M597 102c0 -21.333 -12.665 -32 -37.998 -32c-30 0 -66.333 12.667 -109 38l-101 64l-213 120c-20 10 -49 26.333 -87 49c-13.333 8.66699 -20 27.667 -20 57c0 20.667 1 35.334 3 44.001c4 17.333 26.333 37.666 67 60.999l87 47l207 125l75 47
c35.333 21.333 60.666 32 75.999 32c16 0 28.833 -5.16699 38.5 -15.5s14.5 -23.5 14.5 -39.5c0 -20 -14.667 -39.333 -44 -58l-70 -38c-3.33301 -3.33301 -9 -8.33301 -17 -15c-10 -4 -24.667 -10.667 -44 -20l-76 -47c-4.66699 -2 -11.334 -6 -20.001 -12
c-106.667 -59.333 -160 -93 -160 -101c0 -34.667 18 -63.667 54 -87c23.333 -14.667 63.333 -31 120 -49c62 -19.333 103 -34.333 123 -45c24.667 -11.333 59 -30 103 -56c20.667 -15.333 31 -38.333 31 -69z" />
    <glyph glyph-name="equal" unicode="=" 
d="M595 587c0 -8 -4.83301 -14.834 -14.5 -20.501s-18.5 -8.5 -26.5 -8.5h-439c-48.667 0 -73 16.333 -73 49c0 36.667 23 55 69 55c88 0 193.667 -1.33301 317 -4c29.333 0.666992 72.333 -0.666016 129 -3.99902c6.66699 -1.33301 14.667 -5 24 -11s14 -12 14 -18v-38z
M598 327.999c0 -8.66699 -3.66797 -18.167 -11.001 -28.5s-15.333 -15.5 -24 -15.5l-371 -1c-49.333 0 -84.666 1.33301 -105.999 4c-31.333 3.33301 -47 20.666 -47 51.999c0 12 5.66699 22.833 17 32.5s23 14.5 35 14.5h89c38.667 0 123.667 -1.33301 255 -4
c27.333 0.666992 68 0 122 -2c27.333 -3.33301 41 -20.666 41 -51.999z" />
    <glyph glyph-name="greater" unicode="&#x3e;" 
d="M594 387c0 -13.333 -18.667 -31.9971 -56 -55.9971l-77 -44l-257 -153c-6 -4.66699 -15.333 -11.334 -28 -20.001c-22 -13.333 -49.667 -28 -83 -44h-9c-24 0 -42.333 8.66699 -55 26v21c0 25.333 6 41.666 18 48.999l195 116c45.333 29.333 113 70.333 203 123
c8 4 12 8.66699 12 14c0 7.33301 -8.66699 16 -26 26l-198 114l-108 57c-48.667 27.333 -79.667 51 -93 71v17c0 35.333 18.333 53 55 53c13.333 0 26 -3 38 -9c1.33301 -0.666992 33 -19 95 -55l199 -117c33.333 -20 60.333 -35.333 81 -46
c13.333 -6.66699 33 -17.334 59 -32.001c23.333 -16 35 -31.667 35 -47v-64z" />
    <glyph glyph-name="question" unicode="?" 
d="M599 629c0 -18.667 -13.335 -39.333 -40.002 -62l-245 -206c-11.333 -4 -23.166 -11.333 -35.499 -22s-19.833 -21 -22.5 -31l-8 -78c-6 -29.333 -23.667 -44 -53 -44c-11.333 0 -22.5 4.66699 -33.5 14s-16.5 19.333 -16.5 30v119c0 2.66699 1.16699 8.16699 3.5 16.5
s40.5 42.5 114.5 102.5l136 111l50 38c22 17.333 35.333 32 40 44c2 4.66699 3 11.334 3 20.001c0 12.667 -6.83301 24 -20.5 34s-27.167 15 -40.5 15c-11.333 0 -20.333 -1.66699 -27 -5l-70 -59l-148 -119l-46 -45c-19.333 -16.667 -38 -25 -56 -25
c-12.667 0 -25.167 5.5 -37.5 16.5s-18.5 22.5 -18.5 34.5c0 4 2.33301 14.333 7 31c14 15.333 33.333 33.666 58 54.999c5.33301 3.33301 24.666 19.666 57.999 48.999l189 155c26 22.667 39.667 34.334 41 35.001c16.667 11.333 33.334 17 50.001 17
c18.667 0 51.334 -19.5 98.001 -58.5s70 -67.167 70 -84.5v-98zM249.998 52.001c0 -14.667 -5.33301 -27 -16 -37s-23.667 -15 -39 -15c-13.333 0 -25 4.83301 -35 14.5s-15 21.167 -15 34.5c0 31.333 19.667 47 59 47c30.667 0 46 -14.667 46 -44z" />
    <glyph glyph-name="at" unicode="@" 
d="M594 697c0 -13.333 -0.5 -33.001 -1.5 -59.001s-1.5 -45.667 -1.5 -59v-244c0 -7.33301 0.5 -18 1.5 -32s1.5 -24.667 1.5 -32c0 -91.333 -9.66699 -154.666 -29 -189.999c-7.33301 -13.333 -22.666 -28.333 -45.999 -45c-20 -14.667 -38.667 -25.667 -56 -33h-29
c-24 0 -49.833 5.33301 -77.5 16s-42.834 16 -45.501 16c-13.333 0 -32 -5.83301 -56 -17.5s-43 -17.5 -57 -17.5c-36 0 -71.667 13 -107 39s-55 56.333 -59 91c0.666992 -1.33301 1 14.667 1 48c0 24.667 -0.666992 62 -2 112s-2 87.333 -2 112c0 5.33301 3.33301 17 10 35
c12.667 31.333 30.667 57 54 77c26 22 55 33 87 33h128c14.667 0 27.667 -5.5 39 -16.5s17 -23.833 17 -38.5v-306c0 -28.667 13.333 -52 40 -70h18c28 0 48.333 15.667 61 47v464c0 33.333 -1 57 -3 71c-6.66699 42.667 -32.334 69 -77.001 79c-14 3.33301 -55 5 -123 5
c-41.333 0 -72.666 -2.66699 -93.999 -8c-14.667 -4 -30.334 -19.5 -47.001 -46.5s-35 -40.5 -55 -40.5c-22.667 0 -40 10.667 -52 32v17c0 17.333 7.66699 41.666 23 72.999c28.667 26.667 49.334 44.334 62.001 53.001c26 17.333 51 26 75 26h227
c42.667 0 82.5 -21 119.5 -63s55.5 -84.667 55.5 -128zM256 421.999c-4 9.33301 -8.66602 14 -13.999 14h-62c-8 0 -16.333 -4.83301 -25 -14.5s-14.667 -19.167 -18 -28.5v-35c0 -8 -1 -20.167 -3 -36.5s-3 -28.5 -3 -36.5c0 -58 2 -98.667 6 -122
c5.33301 -31.333 23.666 -47 54.999 -47c43.333 0 65 36.667 65 110c0 21.333 -0.333008 54 -1 98v98z" />
    <glyph glyph-name="A" unicode="A" 
d="M602 54c0 -38.667 -19.334 -58.002 -58.001 -58.002c-25.333 0 -44.333 16.333 -57 49l-23 93.5c-8 31.667 -19.667 47.5 -35 47.5h-214c-18.667 0 -33 -16.667 -43 -50l-26 -93c-13.333 -33.333 -33.333 -50 -60 -50c-16.667 0 -30 5.16699 -40 15.5
s-15 23.833 -15 40.5c0 8.66699 13.333 54.334 40 137.001c68 210.667 123.667 396.334 167 557.001c2.66699 12.667 7.66699 31.334 15 56.001c2.66699 5.33301 6 13.333 10 24c7.33301 23.333 13 38 17 44c8.66699 13.333 22.334 20 41.001 20c16 0 31.333 -9 46 -27
c42.667 -136 93 -305.667 151 -509c14 -54.667 37 -136 69 -244c10 -30.667 15 -48.334 15 -53.001zM410.999 309.998c0 15.333 -6.5 42.333 -19.5 81s-23.167 72 -30.5 100c-4 22.667 -12.667 56 -26 100c-4 8 -8.66699 12 -14 12c-6.66699 0 -17 -20.667 -31 -62
c-13.333 -36.667 -21 -62 -23 -76c-1.33301 -10 -4 -24.667 -8 -44l-20 -56c-8 -24 -12 -42.333 -12 -55c0 -6 6 -9 18 -9h155c7.33301 0 11 3 11 9z" />
    <glyph glyph-name="B" unicode="B" 
d="M592 260c0 -87.333 -26.334 -154.667 -79.001 -202c-43.333 -38.667 -88.333 -58 -135 -58h-331c-11.333 0 -17 4 -17 12v864c0 1.33301 1.83301 3.16602 5.5 5.49902s6.5 3.5 8.5 3.5h360c16.667 0 37.334 -7 62.001 -21c84 -48 126 -117.333 126 -208
c0 -47.333 -6 -86 -18 -116c-2.66699 -6 -13 -22 -31 -48c-16 -23.333 -24 -38 -24 -44c0 -9.33301 6.33301 -20.666 19 -33.999l30 -30c5.33301 -18.667 13.333 -44 24 -76v-48zM479.999 222.999l0.000976562 82c-2.66699 8.66699 -5.33398 15.667 -8.00098 21
c-20.667 42.667 -53 64 -97 64h-226c-3.33301 -2 -6 -4 -8 -6v-264c2 -2 4.66699 -4 8 -6h208c30 0 58 10.833 84 32.5s39 47.167 39 76.5zM477 649.999v39c0 4 -2.66699 11.333 -8 22c-9.33301 20 -23.5 36.333 -42.5 49s-39.167 19 -60.5 19h-208
c-2 0 -5.33301 -1.83301 -10 -5.5s-7 -6.5 -7 -8.5v-252l6 -6h231c16 0 31.667 7 47 21c22 20 36.333 38.333 43 55c6 14.667 9 37 9 67z" />
    <glyph glyph-name="C" unicode="C" 
d="M601 58c0 -12 -4.99805 -24.668 -14.998 -38.001s-21 -20 -33 -20h-251c-14 0 -32.833 6.66699 -56.5 20s-40.167 26 -49.5 38c-12.667 16.667 -25.667 39.667 -39 69c-20 42.667 -31.333 66.667 -34 72c-16.667 28.667 -40.334 72.667 -71.001 132
c-14.667 32 -22 61.333 -22 88c0 50 9.66699 99 29 147c8.66699 21.333 31 66 67 134c37.333 70.667 60.333 111.334 69 122.001c32.667 44 71.334 66 116.001 66h248c11.333 0 21.166 -5.66699 29.499 -17s12.5 -23 12.5 -35c0 -12.667 -5 -25.334 -15 -38.001
s-21 -19 -33 -19h-216c-5.33301 0 -17 -3 -35 -9c-14.667 -5.33301 -30.667 -24.666 -48 -57.999l-34 -73l-49 -92c-18 -36 -27 -69 -27 -99c0 -15.333 4 -33 12 -53l23 -49c2 -8 5.66699 -19.667 11 -35c3.33301 -10 10.333 -23 21 -39c13.333 -20 21.333 -32.333 24 -37
l34 -78c17.333 -32 38 -48 62 -48h231c11.333 0 20.666 -5.5 27.999 -16.5s11 -22.5 11 -34.5z" />
    <glyph glyph-name="D" unicode="D" 
d="M602 425c0 -14 -1.33496 -26.6699 -4.00195 -38.0029c-4 -17.333 -26.167 -66.666 -66.5 -147.999s-67.166 -131.666 -80.499 -150.999c-40 -58.667 -80.667 -88 -122 -88h-259c-24.667 0 -37 17.333 -37 52c0 32.667 23 51.667 69 57c30 3.33301 45 6 45 8v636
c0 12.667 -10 20.334 -30 23.001c-33.333 4 -52.333 7 -57 9c-20 8 -30 25 -30 51c0 10 4.66699 20.667 14 32s19 17 29 17h250c48.667 0 91.334 -26.667 128.001 -80c8 -11.333 32.667 -59 74 -143l56 -112c14 -36 21 -77.667 21 -125zM491.998 442.997
c0 14.667 -3.66699 33.667 -11 57c-8.66699 27.333 -17.667 44 -27 50l-56 118c-30.667 60 -52 93.333 -64 100c-9.33301 5.33301 -23 8 -41 8c-22 0 -33 -3.66699 -33 -11v-624c0 -20 9.33301 -30 28 -30c22.667 0 37 2 43 6c12 8 41.833 60.333 89.5 157
s71.5 153 71.5 169z" />
    <glyph glyph-name="E" unicode="E" 
d="M598 59c0 -15.333 -5.49805 -29 -16.498 -41s-24.167 -18 -39.5 -18h-486l-27 15v873h534c19.333 0 29 -17.667 29 -53c0 -10.667 -0.833008 -18 -2.5 -22s-5.83398 -9.66699 -12.501 -17s-11.334 -11 -14.001 -11h-402l-15 -17v-258h173c11.333 0 22.5 -6.5 33.5 -19.5
s16.5 -25.167 16.5 -36.5c0 -9.33301 -3.83301 -21 -11.5 -35s-15.5 -21 -23.5 -21h-173l-15 -17v-267h417c8.66699 0 16.667 -6.66699 24 -20s11 -25 11 -35z" />
    <glyph glyph-name="F" unicode="F" 
d="M607 839c0 -24 -5.33008 -40.166 -15.9971 -48.499s-28.334 -12.5 -53.001 -12.5h-373c-2.66699 0 -6.83398 -1.5 -12.501 -4.5s-8.5 -5.5 -8.5 -7.5v-151c4 -6.66699 10 -12.334 18 -17.001h288c10 0 18.5 -4.83301 25.5 -14.5s10.5 -19.5 10.5 -29.5
c0 -14 -4.5 -28.333 -13.5 -43s-20.167 -22 -33.5 -22h-286l-12 -11v-440c-4 -10 -12.333 -18.833 -25 -26.5s-24.667 -11.5 -36 -11.5c-12 0 -23.5 3.5 -34.5 10.5s-16.5 16.167 -16.5 27.5v834c0 10 5 15 15 15h527c9.33301 0 17.666 -5.5 24.999 -16.5s11 -21.5 11 -31.5
z" />
    <glyph glyph-name="G" unicode="G" 
d="M603 150c-20 -51.333 -41.667 -87.666 -65 -108.999c-28.667 -27.333 -68 -41 -118 -41h-249c-11.333 0 -29 7 -53 21c-59.333 34.667 -89 78.667 -89 132v359c0 38 23.333 86.667 70 146l107 133c43.333 64.667 87.333 97 132 97h224c17.333 0 26 -10 26 -30
c0 -52.667 -19.667 -79 -59 -79h-167c-16 0 -34.667 -13.333 -56 -40l-44 -60c-24.667 -27.333 -59 -69.333 -103 -126c-10 -15.333 -15 -33 -15 -53v-329c0 -12 5 -24.333 15 -37s20.667 -19 32 -19h247c18 0 34.667 15.667 50 47c2 25.333 3 53.666 3 84.999s-5 47 -15 47
h-109c-18.667 0 -35 11.667 -49 35v15c0 13.333 3.66699 26.5 11 39.5s17.333 19.5 30 19.5h137c14 0.666992 24.667 1 32 1c26 0 41 -0.333008 45 -1c20 -2.66699 30 -10.667 30 -24v-229z" />
    <glyph glyph-name="H" unicode="H" 
d="M610 57c0 -14 -5.50195 -27.002 -16.502 -39.002s-23.167 -18 -36.5 -18c-15.333 0 -29.666 4.66699 -42.999 14s-20 21.333 -20 36v317c0 18.667 -15.333 28 -46 28c-181.333 0 -276.333 -1.33301 -285 -4c-12 -3.33301 -18 -8.33301 -18 -15v-299c0 -18 -4 -34 -12 -48
c-9.33301 -17.333 -22 -26 -38 -26c-13.333 0 -26 2.66699 -38 8c-15.333 6.66699 -23.666 15.667 -24.999 27c-3.33301 23.333 -4.66602 53.333 -3.99902 90c1.33301 59.333 2.33301 90 3 92c0 38.667 -0.333008 96 -1 172c-0.666992 77.333 -1 134 -1 170v300
c0 8.66699 7 16.334 21 23.001c12 6 23 9 33 9c13.333 0 25.666 -2.66699 36.999 -8c14.667 -6.66699 22 -16 22 -28v-331c0 -1.33301 4 -7.33301 12 -18h100c140.667 0 214 1 220 3c13.333 4.66699 20 16.334 20 35.001v311c0 12 7 22 21 30c12 6 24.667 9 38 9
c12.667 0 24.667 -2.66699 36 -8c14 -6.66699 21 -15.667 21 -27v-805z" />
    <glyph glyph-name="I" unicode="I" 
d="M600 62c0 -12.667 -5.16699 -26.166 -15.5 -40.499s-21.833 -21.5 -34.5 -21.5h-477c-12.667 0 -23.334 8 -32.001 24c-8 14 -12 27.667 -12 41c0 35.333 27.667 53 83 53c9.33301 0 22 -0.5 38 -1.5s26.333 -1.5 31 -1.5c30.667 0 54.334 1.66699 71.001 5
c2 3.33301 4 7 6 11v563c0 45.333 -1.16699 71.666 -3.5 78.999s-11.166 11 -26.499 11h-157c-16.667 11.333 -27.334 20 -32.001 26c-6.66699 8.66699 -10 21.667 -10 39c0 6.66699 3 14.667 9 24s12 14 18 14h485c15.333 0 28.5 -4.16699 39.5 -12.5
s16.5 -19.833 16.5 -34.5c0 -13.333 -4.16699 -26 -12.5 -38s-18.833 -18 -31.5 -18h-167c-12 0 -18 -14.667 -18 -44c0 -195.333 1 -398.333 3 -609c5.33301 -12 24 -18 56 -18c9.33301 0 23.5 0.5 42.5 1.5s33.167 1.5 42.5 1.5c58.667 0 88 -18 88 -54z" />
    <glyph glyph-name="J" unicode="J" 
d="M479 189c0 -45.333 -9.66602 -81.001 -28.999 -107.001c-13.333 -17.333 -42.333 -40.666 -87 -69.999c-12 -8 -20.667 -12 -26 -12h-160c-33.333 0 -66.333 18.5 -99 55.5s-49 72.5 -49 106.5v198c0 13.333 6.33301 24.5 19 33.5s25.667 13.5 39 13.5
c36.667 0 55 -30.333 55 -91c0 -8.66699 -0.333008 -20 -1 -34s-1 -23.333 -1 -28c0 -40.667 1.33301 -68 4 -82c6.66699 -35.333 22.667 -53 48 -53h125c15.333 0 28.666 7.66699 39.999 23c10 13.333 15 28 15 44v662c0 13.333 5.33301 23.5 16 30.5s23 10.5 37 10.5
c36 0 54 -12.667 54 -38v-662z" />
    <glyph glyph-name="K" unicode="K" 
d="M598 59c0 -11.333 -3.66699 -24.001 -11 -38.001s-16.333 -21 -27 -21h-41l-162 138c-2 1.33301 -34.333 31.666 -97 90.999c-39.333 36.667 -74.333 64 -105 82l-11 1l-3 -4c0 -18 -0.5 -45 -1.5 -81s-1.5 -63 -1.5 -81c0 -10 0.5 -25 1.5 -45s1.5 -35 1.5 -45
c0 -35.333 -26.333 -53 -79 -53c-22 14.667 -33 25.334 -33 32.001v826c0 8 6.16699 16 18.5 24s22.833 12 31.5 12c16.667 0 37.334 -13 62.001 -39v-249c0 -11.333 3.66699 -17 11 -17c9.33301 0 25 10 47 30l44 43c31.333 28.667 82.333 70.334 153 125.001
c85.333 65.333 135.333 98 150 98s27 -5.5 37 -16.5s15 -24.167 15 -39.5c0 -13.333 -7 -26 -21 -38l-181 -152c-12 -9.33301 -27.667 -24 -47 -44c-14 -7.33301 -29.667 -19.333 -47 -36c-26.667 -24.667 -41.334 -38 -44.001 -40l-46 -32c-22 -16 -33 -29 -33 -39
c0 -5.33301 1 -9.33301 3 -12c8 -10 34 -33.333 78 -70l88 -72l49.5 -41.5l83.5 -70.5l71 -56c30.667 -26.667 46 -50 46 -70z" />
    <glyph glyph-name="L" unicode="L" 
d="M595 69c0 -16.667 -5.00098 -30.668 -15.001 -42.001c-6.66699 -6.66699 -19 -15.667 -37 -27h-465l-37 15c-8 6.66699 -12 14.334 -12 23.001v809c0 13.333 6.66699 24 20 32c10.667 6 23.334 9 38.001 9s27.167 -5 37.5 -15s15.5 -22.333 15.5 -37v-691
c0 -17.333 15.333 -26 46 -26h357c13.333 0 25.333 -5 36 -15s16 -21.667 16 -35z" />
    <glyph glyph-name="M" unicode="M" 
d="M592 44c0 -7.33301 -6.66699 -16.5 -20 -27.5s-24 -16.5 -32 -16.5c-15.333 0 -28.5 4.5 -39.5 13.5s-16.5 20.833 -16.5 35.5l-3 635c0 18 -4.66699 27 -14 27c-25.333 -36.667 -49.666 -66.667 -72.999 -90c-2 -8 -8 -23 -18 -45c-8 -17.333 -12.667 -34.333 -14 -51
c-11.333 -21.333 -28.333 -32 -51 -32c-18 0 -31 5.33301 -39 16c-4.66699 7.33301 -8.66699 20.5 -12 39.5s-7 32.5 -11 40.5c-6 12 -22.667 37 -50 75c-29.333 40.667 -46.333 61 -51 61c-5.33301 0 -8 -1.66699 -8 -5v-662c0 -13.333 -12.667 -30.666 -38 -51.999h-18
c-28 0 -45.333 14.667 -52 44c-2 9.33301 -3 35.333 -3 78v24c-0.666992 10.667 -1 18.667 -1 24s0.666992 13.666 2 24.999s2 20 2 26v646c0 2.66699 2.16699 6.33398 6.5 11.001s7.83301 7 10.5 7h107c16 0 40.333 -26 73 -78c34.667 -54.667 54 -83 58 -85l21 -23h8
c7.33301 5.33301 38.333 48 93 128c11.333 6.66699 19 16 23 28c3.33301 10 9.66602 16.667 18.999 20c16 5.33301 48.333 8 97 8c16.667 0 28.167 -3.33301 34.5 -10s9.5 -18.334 9.5 -35.001v-800z" />
    <glyph glyph-name="N" unicode="N" 
d="M595 36c0 -9.33301 -15.335 -18.001 -46.002 -26.001c-25.333 -6.66699 -45 -10 -59 -10c-17.333 0 -32.666 7 -45.999 21c-8 8 -17.667 27.333 -29 58l-24 64l-46 101l-46 111c-15.333 30.667 -35 73.334 -59 128.001c-16.667 46.667 -45.334 110 -86.001 190l-9 3
c-8.66699 -6.66699 -13 -81.334 -13 -224.001c0 -45.333 0.666992 -113 2 -203s2 -157.667 2 -203c0 -11.333 -7.5 -21 -22.5 -29s-28.833 -12 -41.5 -12c-9.33301 0 -18.833 4.5 -28.5 13.5s-14.5 18.167 -14.5 27.5v834c0 5.33301 8 11 24 17h37
c16 0.666992 28.333 1 37 1c26.667 0 44.334 -4.33301 53.001 -13c6.66699 -6 14.667 -21.333 24 -46c6 -18 12.333 -35.667 19 -53l133 -292l61 -140c34 -75.333 54.667 -113 62 -113h3l3 3c2 24 3 33.667 3 29v577c0 27.333 18 41 54 41
c10.667 0 21.334 -2.33301 32.001 -7c14 -5.33301 21 -12.666 21 -21.999v-826z" />
    <glyph glyph-name="O" unicode="O" 
d="M593 468c0 -38.667 -3.99707 -70.3311 -11.9971 -94.998c-0.666992 -2.66699 -14 -29 -40 -79s-52.333 -103.667 -79 -161c-40.667 -88.667 -91.667 -133 -153 -133s-110.333 38.667 -147 116c-4.66699 13.333 -13.334 32.333 -26.001 57c-4 5.33301 -8.66699 16 -14 32
c-32.667 55.333 -54.667 96.666 -66 123.999c-18 44 -27 89.333 -27 136c0 20.667 1 38.334 3 53.001c4 27.333 19.667 65 47 113l63 111c19.333 40.667 32.666 66.667 39.999 78c19.333 32 38.666 52.667 57.999 62c16 7.33301 26.333 11 31 11h75
c15.333 0 33.5 -7.33301 54.5 -22s35.167 -29.334 42.5 -44.001l95 -185c3.33301 -8.66699 9 -21.334 17 -38.001c17.333 -31.333 28 -53.333 32 -66c4 -14.667 6 -38 6 -70zM480.003 459.003c0 22.667 -3.99902 44.335 -11.999 65.002c0 0.666992 -9.33301 20.667 -28 60
c-53.333 114 -92 182.333 -116 205h-12c-10.667 0 -19.334 -4.66699 -26.001 -14c-18 -25.333 -46.333 -78 -85 -158c-41.333 -86.667 -62 -139.334 -62 -158.001c0 -42 34.667 -124.667 104 -248c9.33301 -21.333 21.666 -45.333 36.999 -72c8 -8 18.667 -12 32 -12
c12.667 0 28.334 16.667 47.001 50l34 69l42 74c15.333 29.333 25.333 55.666 30 78.999c10 12 15 32 15 60z" />
    <glyph glyph-name="P" unicode="P" 
d="M599 484c0 -28 -14.998 -56.3301 -44.998 -84.9971c-26.667 -26.667 -54.667 -44.334 -84 -53.001c-8 -2.66699 -58.333 -4 -151 -4c-56.667 -0.666992 -113.334 -1 -170.001 -1c-4 -2.66699 -6.83301 -5.83398 -8.5 -9.50098s-2.5 -96.834 -2.5 -279.501
c0 -16 -6.16699 -28.667 -18.5 -38s-26.5 -14 -42.5 -14c-6.66699 0 -16.334 2.5 -29.001 7.5s-19 10.167 -19 15.5v848c0 12 47.333 18 142 18h242c44 0 85 -13.667 123 -41c42 -30.667 63 -67 63 -109v-255zM487.002 507.003v215c0 13.333 -6.5 25.833 -19.5 37.5
s-26.167 17.5 -39.5 17.5h-249c-0.666992 0 -10.667 -1 -30 -3c-2 -4 -4.66699 -9.66699 -8 -17v-299l5 -6h285c14.667 0 27.667 5.5 39 16.5s17 23.833 17 38.5z" />
    <glyph glyph-name="Q" unicode="Q" 
d="M595 62c0 -16 -5.83398 -29.834 -17.501 -41.501s-25.5 -17.5 -41.5 -17.5h-134c-14 0 -25.167 15.667 -33.5 47s-19.5 47 -33.5 47c-11.333 0 -25 -8.33301 -41 -25c-25.333 -25.333 -42 -41 -50 -47c-22.667 -16.667 -47.667 -25 -75 -25
c-48.667 0 -90.334 25.333 -125.001 76c-10 14.667 -15 26 -15 34v369c0 7.33301 4 22.333 12 45c12 34.667 25.333 61.334 40 80.001c10.667 14 32 34.333 64 61c4 3.33301 8 5.33301 12 6l120 104l15 14.5c5.33301 5 11 8.16699 17 9.5l67 67l47 21h23
c39.333 0 66.333 -5 81 -15c45.333 -30 68 -61.333 68 -94v-376c0 -52 -44.667 -116 -134 -192c-5.33301 -2.66699 -10.666 -5.66699 -15.999 -9s-8 -8 -8 -14c0 -14 3 -28.333 9 -43c6.66699 -18 15.667 -28.333 27 -31c5.33301 -1.33301 23.333 -2 54 -2
c16.667 0 31.334 -3.66699 44.001 -11c16 -9.33301 24 -22 24 -38zM486.999 629.999c0 11.333 -0.496094 28.667 -1.49609 52s-1.5 40.666 -1.5 51.999c0 25.333 -10.667 38 -32 38c-8 0 -18.667 -6.66699 -32 -20c-7.33301 -7.33301 -18 -16 -32 -26
c-12.667 -12.667 -32.334 -31 -59.001 -55c-26.667 -19.333 -65.334 -49.666 -116.001 -90.999c-48.667 -44 -73 -81.667 -73 -113v-333l8 -15c10 -2 16 -3 18 -3c11.333 0 27 8 47 24c15.333 12 42.666 36.333 81.999 73c2 4.66699 3 9.66699 3 15c0 11.333 -5 24 -15 38
l-15 44.5c-5.33301 15.667 -8 29.834 -8 42.501c0 30.667 17.333 46 52 46c20.667 0 36.667 -7.66699 48 -23c4 -6 10.333 -20.667 19 -44c5.33301 -15.333 12 -23 20 -23c6 0 10 1.66699 12 5c35.333 26 56.666 48.333 63.999 67c6.66699 14.667 10 44.667 10 90
c0 18 0.333008 44.667 1 80s1 61.666 1 78.999z" />
    <glyph glyph-name="R" unicode="R" 
d="M360 472c0 -4.66699 7.33203 -16.998 21.999 -36.998l28 -39l79 -141l64 -99c30 -48 45 -81.333 45 -100c0 -35.333 -20.667 -53 -62 -53c-18 0 -34.667 9.66699 -50 29l-38 68l-147 253c-14.667 28 -38.667 67.667 -72 119c-6 7.33301 -13 11 -21 11h-62l-8 -8v-361
c0 -32 -2 -57.333 -6 -76c-18 -25.333 -35.667 -38 -53 -38c-10 0 -20.333 3.33301 -31 10c-12.667 7.33301 -19 15.666 -19 24.999v832l18 18h407c30.667 0 60.834 -14.333 90.501 -43s47.5 -58.334 53.5 -89.001c2.66699 -12 3.66699 -32.333 3 -61v-42
c0 -24.667 -11 -53.667 -33 -87c-30 -45.333 -78.333 -70.333 -145 -75c-12 0 -24 -0.333008 -36 -1c-18 -2 -27 -7 -27 -15zM485.999 703.002c0 18 -4 33.667 -12 47c-10 16 -23.333 24 -40 24h-285l-8 -9c-2 -16 -3 -27 -3 -33v-80c0 -18 1 -32.333 3 -43
c3.33301 -5.33301 8 -9 14 -11c9.33301 -2.66699 81.666 -4 216.999 -4c48.667 0 79.834 6.16699 93.501 18.5s20.5 42.5 20.5 90.5z" />
    <glyph glyph-name="S" unicode="S" 
d="M604 739c0 -14 -5.33105 -26.834 -15.998 -38.501s-23 -17.5 -37 -17.5c-33.333 0 -55.333 18 -66 54c-0.666992 4.66699 -2.33398 11.334 -5.00098 20.001c-6 13.333 -42.333 21.333 -109 24h-128c-65.333 0 -98 -6 -98 -18c0 -10.667 117 -163.334 351 -458.001
c14.667 -20.667 38 -49.667 70 -87c23.333 -22.667 35 -49 35 -79c0 -54.667 -22.667 -96 -68 -124c-16 -10 -29 -15 -39 -15h-338c-33.333 0 -63 15.667 -89 47c-25.333 29.333 -38 61 -38 95c0 16 4.5 30.667 13.5 44s21.167 20 36.5 20c21.333 0 37.666 -8 48.999 -24
l21 -46c8 -17.333 18 -26.333 30 -27s90.667 -1 236 -1c45.333 0 68 7.33301 68 22c0 8 -3 15.667 -9 23l-344 436l-65 79c-22 32.667 -33 64.334 -33 95.001c0 59.333 28.667 99.333 86 120c2.66699 1.33301 5.66699 2.33301 9 3h358c12 -3.33301 21.333 -6.33301 28 -9
c25.333 -10 46.833 -28.5 64.5 -55.5s26.5 -54.5 26.5 -82.5z" />
    <glyph glyph-name="T" unicode="T" 
d="M598 727c0 -8.66699 -4.99902 -17.667 -14.999 -27s-24.667 -14 -44 -14c-22 0 -36.667 8.33301 -44 25c-4 8.66699 -7 26.667 -9 54c-3.33301 6 -8 9 -14 9h-94c-6 -8 -9 -13 -9 -15v-709c0 -13.333 -6.83301 -25 -20.5 -35s-27.167 -15 -40.5 -15
c-10 0 -20.833 4.5 -32.5 13.5s-17.5 18.167 -17.5 27.5v715c-6 13.333 -11 20 -15 20h-82c-12 0 -19.833 -15 -23.5 -45s-15.167 -45 -34.5 -45h-41c-6.66699 0 -13.834 5 -21.501 15s-11.5 18.667 -11.5 26v143c0 12 5 18 15 18h542l12 -12v-149z" />
    <glyph glyph-name="U" unicode="U" 
d="M595 157l-8.99902 -28.999c-9.33301 -32.667 -20 -55.667 -32 -69c-34.667 -39.333 -76.334 -59 -125.001 -59h-231c-61.333 0 -110 28.333 -146 85c-4.66699 7.33301 -10.334 17.666 -17.001 30.999c-2.66699 9.33301 -4.66699 17.333 -6 24v688
c0 15.333 4.5 29 13.5 41s21.167 18 36.5 18c14 0 27.667 -4.5 41 -13.5s20 -20.167 20 -33.5v-665c0 -18.667 6.5 -34.167 19.5 -46.5s28.833 -18.5 47.5 -18.5h195c30.667 0 54.334 11.667 71.001 35c7.33301 6 11 26.667 11 62v612c0 18.667 4.66699 34.667 14 48
s23 20 41 20c8.66699 0 20.167 -3.83301 34.5 -11.5s21.5 -15.5 21.5 -23.5v-695z" />
    <glyph glyph-name="V" unicode="V" 
d="M597 629c0 -14.667 -69.002 -193.001 -207.002 -535.001c-12.667 -31.333 -22 -51.666 -28 -60.999c-14.667 -22 -32.667 -33 -54 -33c-20 0 -37.667 14 -53 42c-3.33301 6 -12.666 28.667 -27.999 68l-163 425l-20 46c-10 23.333 -15 38.333 -15 45v224
c8.66699 13.333 16.5 22.5 23.5 27.5s17.833 7.5 32.5 7.5c13.333 0 25.666 -4 36.999 -12s17 -18.667 17 -32v-198c2 -4 7 -14.667 15 -32l33 -84c34 -88 51.667 -133.333 53 -136c20.667 -51.333 40.334 -95.333 59.001 -132c8 -15.333 13 -23 15 -23
c5.33301 0 11 7.66699 17 23l84 205c46 112 69 172.667 69 182v204c0 10 7.33301 19 22 27c12.667 7.33301 24.334 11 35.001 11c15.333 0 28.5 -5 39.5 -15s16.5 -22.667 16.5 -38v-206z" />
    <glyph glyph-name="W" unicode="W" 
d="M599 134c-2 -4 -14.498 -24.6689 -37.498 -62.002s-34.833 -56.333 -35.5 -57c-11.333 -10 -20.333 -15 -27 -15h-140c-9.33301 6 -24 14.667 -44 26h-3c-18 -17.333 -35.333 -26 -52 -26h-132c-9.33301 0 -19 6 -29 18c-6 7.33301 -19.167 27.5 -39.5 60.5
s-30.5 51.5 -30.5 55.5v710c0 5.33301 5 15 15 29c6.66699 10 20.334 15 41.001 15c26.667 0 45 -10.667 55 -32l1 -644c0 -23.333 0.666992 -38.666 2 -45.999c2.66699 -12.667 9.5 -24.5 20.5 -35.5s22.833 -16.5 35.5 -16.5c15.333 0 29 8.66699 41 26
c10 14.667 15.667 30 17 46c-0.666992 -3.33301 -1 15 -1 55c0 25.333 1 77 3 155c1.33301 65.333 1.66602 117.333 0.999023 156c9.33301 27.333 26.666 41 51.999 41c26 0 43.333 -8 52 -24c6 -10.667 9 -30 9 -58c0 -16.667 -0.5 -41.5 -1.5 -74.5
s-1.5 -57.833 -1.5 -74.5c0 -79.333 1.33301 -144.666 4 -195.999c9.33301 -20 14.666 -31 15.999 -33c8 -11.333 18.333 -17 31 -17c3.33301 0 8.33301 0.333008 15 1h14c4.66699 0 12.667 9.66699 24 29s17 32 17 38v663c0 10 5 19.333 15 28s20.333 13 31 13
c14 0 27.833 -3.66699 41.5 -11s20.5 -17.333 20.5 -30v-713z" />
    <glyph glyph-name="X" unicode="X" 
d="M606 837c0 -11.333 -4.00098 -23.333 -12.001 -36l-22 -31c-11.333 -22 -29.666 -54.333 -54.999 -97l-38 -56c-4 -16 -19.833 -45 -47.5 -87s-42.5 -68.667 -44.5 -80h-2c0 -12 4.66699 -24.667 14 -38l24 -33c32.667 -50.667 66.667 -107 102 -169
c52 -90.667 78 -145 78 -163v-15c-19.333 -21.333 -39.333 -32 -60 -32c-19.333 -0 -36.666 9.33301 -51.999 28c-6.66699 8.66699 -17.334 26.667 -32.001 54c-6.66699 10 -14.667 25.667 -24 47l-58 102c-32 55.333 -52 85 -60 89h-3c-6.66699 0 -35 -44.333 -85 -133
c-57.333 -102.667 -87.666 -156.334 -90.999 -161.001c-12 -17.333 -29.333 -26 -52 -26c-14.667 0 -27.334 4 -38.001 12c-12.667 9.33301 -19 21 -19 35c0 20.667 35.667 89.834 107 207.501s107 180.834 107 189.501c0 10 -5 22.667 -15 38l-23 35l-99 170l-48 71
c-19.333 31.333 -29 56.666 -29 75.999c0 37.333 20 56 60 56c17.333 0 31.666 -7 42.999 -21c13.333 -16.667 44.333 -68.667 93 -156c43.333 -79.333 73 -125.333 89 -138h3c10.667 0 42 49 94 147c54.667 101.333 89 155.333 103 162c8 4 18.667 6 32 6
c16.667 0 30.834 -4.66699 42.501 -14s17.5 -22.333 17.5 -39z" />
    <glyph glyph-name="Y" unicode="Y" 
d="M594 716c-4.66699 -9.33301 -12.668 -23.001 -24.001 -41.001c-20 -26.667 -39 -50.667 -57 -72c-6.66699 -6 -16.334 -16 -29.001 -30l-111 -139c-4 -5.33301 -6 -18 -6 -38v-338c0 -17.333 -6.33301 -31.333 -19 -42s-27.667 -16 -45 -16
c-11.333 0 -22.5 4.5 -33.5 13.5s-16.5 19.167 -16.5 30.5c0 1.33301 0.333008 41 1 119c0.666992 69.333 1 124.333 1 165c-0.666992 58.667 -2.33398 94 -5.00098 106l-133 174l-50 55c-25.333 29.333 -38 48 -38 56v125c0 14 7.66699 25 23 33
c12.667 7.33301 26.334 11 41.001 11c16.667 0 32.334 -11 47.001 -33c0 -8.66699 0.5 -22.334 1.5 -41.001s1.5 -32.667 1.5 -42c0 -12 4 -22.667 12 -32l51 -70c22 -25.333 53.333 -64.333 94 -117c2.66699 -2 5.66699 -3 9 -3c10 0 37.667 28.667 83 86
c30.667 38.667 57.334 74.334 80.001 107.001c10 14 15 51.333 15 112c14.667 22 33.667 33 57 33c10 0 20.833 -3.16699 32.5 -9.5s17.5 -14.166 17.5 -23.499v-139z" />
    <glyph glyph-name="Z" unicode="Z" 
d="M604 64c0 -16.667 -5.16602 -31.5 -15.499 -44.5s-23.5 -19.5 -39.5 -19.5h-488c-14.667 0 -24 4.66699 -28 14c-2.66699 5.33301 -4 16.333 -4 33c0 20 45.667 105.333 137 256l170 281c13.333 28 35.666 69 66.999 123l20 27c8 12 12 22.333 12 31c0 10 -3 15 -9 15
h-356c-12 0 -21.667 6.66699 -29 20c-6 10.667 -9 22.334 -9 35.001c0 14 5.33301 26.333 16 37s23 16 37 16h487c22.667 0 34 -10.333 34 -31c0 -3.33301 -0.333008 -9 -1 -17s-1 -14.333 -1 -19c0 -8.66699 -67.5 -122.334 -202.5 -341.001s-202.5 -334.667 -202.5 -348
c0 -14 1.66699 -21 5 -21h365c6.66699 0 14.167 -6.16699 22.5 -18.5s12.5 -21.833 12.5 -28.5z" />
    <glyph glyph-name="bracketleft" unicode="[" 
d="M599 58c0 -38.667 -11.3301 -58.001 -33.9971 -58.001h-492c-10.667 0 -19.5 5.33301 -26.5 16s-10.833 21.667 -11.5 33c-0.666992 55.333 -1.33398 138.333 -2.00098 249l-4 523c0 10 4.5 21.167 13.5 33.5s18.167 18.5 27.5 18.5h483
c12.667 0 23.167 -5.33301 31.5 -16s12.5 -22.667 12.5 -36c0 -30 -14.667 -46.667 -44 -50c-22 -2.66699 -46.667 -4.33398 -74 -5.00098c-18.667 0 -43.667 0.333008 -75 1c-36.667 0.666992 -61.667 1 -75 1c-6 0 -12 -3.66699 -18 -11v-73
c0 -3.33301 -0.5 -8.66602 -1.5 -15.999s-1.5 -12.666 -1.5 -15.999c0 -2.66699 0.5 -6.16699 1.5 -10.5s1.5 -7.83301 1.5 -10.5v-448c0 -2.66699 0.5 -7 1.5 -13s1.5 -10.333 1.5 -13c0 -1.33301 -0.5 -3.33301 -1.5 -6s-1.5 -4.66699 -1.5 -6
c0 -3.33301 0.5 -8.33301 1.5 -15s1.5 -11.334 1.5 -14.001c2.66699 -4 8 -6.66699 16 -8c5.33301 -1.33301 12.333 -1.66602 21 -0.999023c13.333 0.666992 19.666 1 18.999 1c14.667 0 36.667 -0.333008 66 -1s51.666 -1 66.999 -1c64 0 96 -16 96 -48zM207.003 281.999
c0 206.667 -2 365.998 -6 477.998c-5.33301 5.33301 -16 8 -32 8c-12.667 0 -20.667 -2.66699 -24 -8s-5 -14.666 -5 -27.999v-534c0 -16 1 -43.333 3 -82l8 -8h38c10 0 15 8 15 24s0.5 40.833 1.5 74.5s1.5 58.834 1.5 75.501z" />
    <glyph glyph-name="backslash" unicode="\" 
d="M594 58c0 -38.667 -16.666 -58 -49.999 -58c-19.333 -0 -35.833 8.83301 -49.5 26.5s-29.5 43.167 -47.5 76.5c-22 42.667 -36.667 69 -44 79l-31 45l-253 434l-72 116c-12 20 -18 34.667 -18 44c0 40.667 17.333 61 52 61c21.333 0 42 -14.667 62 -44
c9.33301 -14 21.666 -35.333 36.999 -64c9.33301 -18 24.333 -42.333 45 -73c22 -32.667 37.333 -56.667 46 -72c7.33301 -18.667 20.666 -46 39.999 -82l61 -105c14.667 -21.333 35.334 -54.333 62.001 -99c12.667 -23.333 33 -58 61 -104c66 -98 99 -158.333 99 -181z" />
    <glyph glyph-name="bracketright" unicode="]" 
d="M594 44c0 -10 -4.00293 -19.8359 -12.0029 -29.5029s-16.667 -14.5 -26 -14.5h-489c-11.333 0 -20.5 5.66699 -27.5 17s-10.5 23 -10.5 35c0 14.667 5 27.167 15 37.5s22.333 15.5 37 15.5h216c5.33301 2.66699 11 7.33398 17 14.001v641c0 2 -1.16699 4.5 -3.5 7.5
s-3.83301 5.16699 -4.5 6.5c-5.33301 0 -13.166 0.5 -23.499 1.5s-18.166 1.5 -23.499 1.5c-15.333 0 -38 -0.666992 -68 -2s-52.333 -2 -67 -2c-63.333 0 -95 17 -95 51c0 11.333 3.66699 22.333 11 33s16.333 16 27 16h477c18.667 0 35.334 -12.667 50.001 -38v-58
c0 -13.333 -0.5 -33.166 -1.5 -59.499s-1.5 -46.166 -1.5 -59.499c0 -7.33301 0.5 -18.5 1.5 -33.5s1.5 -26.167 1.5 -33.5v-408c0 -6 -0.5 -14.667 -1.5 -26s-1.5 -20 -1.5 -26c0 -2 0.5 -5 1.5 -9s1.5 -7 1.5 -9v-69zM491.997 296.997c0 4.66699 -0.5 11.3311 -1.5 19.998
s-1.5 14.667 -1.5 18l-3 5v201c0 10 -0.5 24.667 -1.5 44s-1.5 34 -1.5 44c0 9.33301 0.5 23.333 1.5 42s1.5 32.667 1.5 42c0 8 -1 23.667 -3 47l-12 11h-40l-6 -9v-119c0 -3.33301 -0.5 -8.16602 -1.5 -14.499s-1.5 -11.166 -1.5 -14.499c0 -16 0.5 -39.833 1.5 -71.5
s1.5 -55.5 1.5 -71.5c0 -25.333 -0.5 -63 -1.5 -113s-1.5 -87.667 -1.5 -113v-97c1.33301 -8 3 -16 5 -24c2.66699 -10.667 6.66699 -16 12 -16h15c16.667 0 27 6.33301 31 19c0.666992 2.66699 1 15.667 1 39c0 14.667 1 36.5 3 65.5s3 50.833 3 65.5z" />
    <glyph glyph-name="asciicircum" unicode="^" 
d="M594 169c0 -15.333 -6.33398 -27.333 -19.001 -36s-26.667 -13 -42 -13c-17.333 0 -41.666 23.333 -72.999 70l-3 6l-70 108c-34.667 52 -59 83.667 -73 95h-3c-8.66699 0 -43.334 -46.333 -104.001 -139l-52 -86c-25.333 -36 -50.666 -54 -75.999 -54
c-33.333 0 -50 23.333 -50 70l166 324c12.667 26.667 33 65 61 115c13.333 21.333 30 32 50 32c18 0 33.333 -7.66699 46 -23c6.66699 -8 25 -41 55 -99l88 -172l58 -99c27.333 -48 41 -81 41 -99z" />
    <glyph glyph-name="underscore" unicode="_" 
d="M624 -52c0 -38.667 -31 -58 -93 -58h-237c-7.33301 0 -18 -0.5 -32 -1.5s-24.667 -1.5 -32 -1.5l-114 4c-12.667 0 -31.667 0.666992 -57 2c-12.667 2 -24.167 7.5 -34.5 16.5s-15.5 19.833 -15.5 32.5c0 28.667 10.333 46.667 31 54c8.66699 3.33301 31 5 67 5
c15.333 0 39 0.333008 71 1s56 1 72 1c12.667 0 31.667 -0.5 57 -1.5s44.333 -1.5 57 -1.5h219c10.667 0 20.167 -5.83301 28.5 -17.5s12.5 -23.167 12.5 -34.5z" />
    <glyph glyph-name="grave" unicode="`" 
d="M428 854c0 -15.333 -3.99902 -33.9971 -11.999 -55.9971l-20 -55l-46 -139c-17.333 -54.667 -29 -102.334 -35 -143.001l-25 -48c-12 -18.667 -26 -28 -42 -28c-12.667 0 -27.334 10.667 -44.001 32v282c0 4.66699 0.5 11.667 1.5 21s1.5 16.666 1.5 21.999
c0 8.66699 -0.5 22.167 -1.5 40.5s-1.5 32.166 -1.5 41.499c0 52.667 13.667 79 41 79h122c15.333 0 29.333 -4.33301 42 -13s19 -20.667 19 -36z" />
    <glyph glyph-name="a" unicode="a" 
d="M602 64c0 -14.667 -6.16504 -28.5 -18.498 -41.5s-25.833 -19.5 -40.5 -19.5c-10.667 0 -22.834 6.83301 -36.501 20.5s-26.834 20.5 -39.501 20.5l-70 -38c-8 -4.66699 -67.667 -7 -179 -7c-48 0 -86 9.16699 -114 27.5s-50 49.833 -66 94.5
c-2.66699 6.66699 -5.66699 17 -9 31c-0.666992 5.33301 -1 30 -1 74c0 28 1.33301 48 4 60c6 32 24.167 59.5 54.5 82.5s61.833 34.5 94.5 34.5h289c6 0 9 12.667 9 38c0 32.667 -4.66699 56 -14 70c-12 17.333 -33.667 26 -65 26h-175c-20 0 -37 4.66699 -51 14
c-16.667 11.333 -25 26.333 -25 45c0 12.667 3.33301 24.5 10 35.5s16 16.5 28 16.5h245c38 0 72.167 -15.333 102.5 -46s46.833 -65 49.5 -103c2.66699 -32 6.33398 -132 11.001 -300c-0.666992 -28 0.666016 -69 3.99902 -123c0 -1.33301 0.5 -3.33301 1.5 -6
s1.5 -4.66699 1.5 -6zM482.002 196v58.001c0 5.33301 -4.5 12.666 -13.5 21.999s-16.167 14.666 -21.5 15.999c-14 4 -38.667 6 -74 6c-98.667 0 -160.667 -2 -186 -6c-21.333 -3.33301 -35 -17.666 -41 -42.999c-2 -10.667 -3 -32 -3 -64v-19
c0.666992 -12.667 7 -24 19 -34s24.333 -15 37 -15h160l69 36c36 20 54 34.333 54 43z" />
    <glyph glyph-name="b" unicode="b" 
d="M590 191c0 -26 -17.3301 -58.998 -51.9971 -98.998c-8.66699 -12.667 -20.334 -27 -35.001 -43c-48.667 -32.667 -102.334 -49 -161.001 -49c-42.667 0 -75.334 3.33301 -98.001 10c-30 8 -58.333 24.667 -85 50h-6c-6 0 -15.5 -10 -28.5 -30s-27.5 -30 -43.5 -30
c-10.667 0 -22 4.66699 -34 14s-18 19.333 -18 30v800c0 11.333 5.83301 21 17.5 29s23.167 12 34.5 12c26 0 44.333 -13.667 55 -41c-0.666992 -26.667 -1 -72.334 -1 -137.001c0 -84 5 -126 15 -126c6 0 22.5 10.167 49.5 30.5s50.167 30.5 69.5 30.5h124
c37.333 0 79.5 -20.833 126.5 -62.5s70.5 -80.834 70.5 -117.501v-271zM483.003 365.002c0 42.667 -7.66797 79 -23.001 109c-20 37.333 -49.333 56 -88 56c-49.333 0 -82 -1.66699 -98 -5c-18 -4 -35 -13.333 -51 -28l-70 -69l-14 -29v-153
c8 -13.333 22.333 -32.666 43 -57.999c13.333 -12.667 31 -27 53 -43c28 -21.333 46 -32 54 -32h92c10.667 0 25.334 7.66699 44.001 23c40 32.667 60 83 60 151c0 8 -0.333008 20.667 -1 38s-1 30.666 -1 39.999z" />
    <glyph glyph-name="c" unicode="c" 
d="M599 64c0 -18.667 -7.33496 -34 -22.002 -46s-31.667 -18 -51 -18h-252c-26 -0 -69.667 26.333 -131 79c-58.667 50 -93.667 94 -105 132c-6 20.667 -9 78.334 -9 173.001c0 61.333 14.667 104.666 44 129.999l111 96c31.333 27.333 70.333 41 117 41h251
c13.333 0 24.5 -5.33301 33.5 -16s13.5 -22.667 13.5 -36c0 -32 -14.333 -52.333 -43 -61c-13.333 -4 -41 -6 -83 -6c-14.667 0 -37 0.333008 -67 1s-52.333 1 -67 1c-13.333 0 -38.666 -1.66699 -75.999 -5l-94 -81c-17.333 -21.333 -26 -63 -26 -125
c0 -35.333 1 -64 3 -86c3.33301 -3.33301 42.333 -39.666 117 -108.999c6.66699 -0.666992 13.334 -3.33398 20.001 -8.00098h266c12.667 0 24.167 -6.16699 34.5 -18.5s15.5 -24.833 15.5 -37.5z" />
    <glyph glyph-name="d" unicode="d" 
d="M593 52c0 -32.667 -18.333 -48.999 -55 -48.999c-17.333 0 -32.5 9.5 -45.5 28.5s-22.167 28.5 -27.5 28.5c-8.66699 0 -22.667 -6.33301 -42 -19c-22.667 -15.333 -36.667 -24 -42 -26c-26 -10 -67.333 -15 -124 -15c-52 0 -99 19 -141 57
c-31.333 28 -52.666 52.333 -63.999 73c-14.667 25.333 -22.334 56.333 -23.001 93v217c0 24 2.16699 42.667 6.5 56s13.5 30 27.5 50c17.333 24.667 40.333 46.667 69 66c32 21.333 61.333 32 88 32h135c35.333 0 72 -20 110 -60h3c8 0 12 4.66699 12 14v191
c0 7.33301 0.5 17.666 1.5 30.999s1.5 23 1.5 29c10 24.667 28.333 37 55 37c11.333 0 23.333 -3.5 36 -10.5s19 -15.833 19 -26.5v-797zM483 288.001c0 56 -2 98.666 -6 127.999l-6 6c-2.66699 5.33301 -28.667 29.333 -78 72c-20 17.333 -38.667 28 -56 32
c-9.33301 2 -30.666 3 -63.999 3c-23.333 0 -41 -1 -53 -3c-16 -2.66699 -32.333 -11.667 -49 -27s-26.334 -30.666 -29.001 -45.999c-0.666992 -3.33301 -1 -28 -1 -74c0 -17.333 -0.333008 -43.666 -1 -78.999s-1 -62 -1 -80c0 -21.333 11.167 -43.5 33.5 -66.5
s43.833 -34.5 64.5 -34.5h96c29.333 17.333 64 43.333 104 78c18.667 16.667 31 30.167 37 40.5s9 27.166 9 50.499z" />
    <glyph glyph-name="e" unicode="e" 
d="M599 318c0 -42.667 -35.3311 -65.998 -105.998 -69.998c-35.333 -2 -76 -3 -122 -3h-97c-12 0 -30 0.5 -54 1.5s-42 1.5 -54 1.5c-9.33301 0 -17 -4.66699 -23 -14v-18c0 -20.667 10.5 -41.834 31.5 -63.501s41.833 -32.5 62.5 -32.5h312c11.333 0 22 -5.5 32 -16.5
s15 -22.167 15 -33.5c0 -46.667 -37 -70 -111 -70h-257c-23.333 0 -48 9 -74 27c-1.33301 1.33301 -22.333 18.666 -63 51.999c-24.667 20.667 -41.667 44 -51 70c-8 21.333 -12 49.666 -12 84.999l1 151c0 66.667 4.66699 110.834 14 132.501s38.666 53.5 87.999 95.5
c29.333 25.333 54.666 38 75.999 38h202c26.667 0 60 -15.667 100 -47c38 -29.333 63 -57.333 75 -84l15 -44v-158zM485.002 400.002c0 61.333 -20 102 -60 122c-14 7.33301 -24.333 11.333 -31 12c-17.333 1.33301 -63 2 -137 2c-38.667 0 -69 -13.333 -91 -40
c-13.333 -16 -20 -29.333 -20 -40v-79c0 -2 3 -5 9 -9c2 0 5.66699 -0.5 11 -1.5s9.33301 -1.5 12 -1.5h272c23.333 0 35 11.667 35 35z" />
    <glyph glyph-name="f" unicode="f" 
d="M538 841c0 -16.667 -5.5 -31.8359 -16.5 -45.5029s-24.833 -20.5 -41.5 -20.5h-141c-56.667 0 -85 -34.667 -85 -104c0 -11.333 3 -19.333 9 -24l41 1c80.667 0.666992 121 -17.666 121 -54.999c0 -29.333 -14 -48 -42 -56c-12.667 -4 -39 -6 -79 -6
c-33.333 0 -50 -6.33301 -50 -19v-455c0 -25.333 -7.66699 -42 -23 -50c-10 -4.66699 -29.333 -7 -58 -7c-18.667 16 -28 32.333 -28 49v419c0 12.667 -1 25.834 -3 39.501s-19.833 22 -53.5 25s-51.5 12.167 -53.5 27.5c-0.666992 3.33301 -2 8.83301 -4 16.5
s-3 13.5 -3 17.5c0 25.333 13 41.333 39 48c3.33301 0.666992 26.333 2.33398 69 5.00098c4 4.66699 6 15 6 31c0 100 51 169.667 153 209h205c9.33301 0 18 -5.16699 26 -15.5s12 -20.5 12 -30.5z" />
    <glyph glyph-name="g" unicode="g" 
d="M597 10c0 -42 -3.83203 -77.501 -11.499 -106.501s-33.167 -62.667 -76.5 -101s-79 -57.5 -107 -57.5h-283c-12 0 -21.667 6 -29 18s-11 24.333 -11 37s3.66699 25.167 11 37.5s17 18.5 29 18.5h265c17.333 0 37.833 11.667 61.5 35s36.167 43.666 37.5 60.999v13
c0 56 -1 98 -3 126l-11 15c-8.66699 0 -18.334 -5 -29.001 -15c-14 -13.333 -23 -21 -27 -23c-30.667 -15.333 -75.334 -23 -134.001 -23c-67.333 0 -111 6.66699 -131 20c-1.33301 0.666992 -10.666 8.66699 -27.999 24c-28.667 24.667 -49 44.334 -61 59.001
c-20 25.333 -30 51 -30 77v221c0 36.667 17.667 74.334 53 113.001c32 36.667 66.667 61.334 104 74.001c10.667 4 25.667 6 45 6h88c30.667 0 58 -5.33301 82 -16c14.667 -6.66699 30 -16.667 46 -30c12.667 -10.667 20.667 -16 24 -16c5.33301 0 10 5 14 15
c5.33301 13.333 10.666 22.666 15.999 27.999c10 10 24.333 15 43 15h14c10 0 17.833 -4.16699 23.5 -12.5s10.834 -16.5 15.501 -24.5v-588zM483.001 393.999c-12.667 32 -52.333 70.668 -119 116.001c-15.333 10.667 -35.333 16 -60 16
c-9.33301 0 -22.666 -0.333008 -39.999 -1h-40c-56 -24 -84 -58 -84 -102c0 -18.667 0.5 -46.334 1.5 -83.001s1.5 -64.334 1.5 -83.001c0 -23.333 10.167 -45.666 30.5 -66.999s42.166 -32 65.499 -32h96c10 0 20.667 4.33301 32 13l28 24c34 28 56.333 50.333 67 67
c14 23.333 21 54 21 92v40z" />
    <glyph glyph-name="h" unicode="h" 
d="M599 61c0 -17.333 -6.33105 -31.833 -18.998 -43.5s-27.667 -17.5 -45 -17.5c-28.667 -0 -46 16.333 -52 49c-0.666992 3.33301 -2 38.666 -4 105.999c-3.33301 105.333 -5 194 -5 266c0 37.333 -3.66699 63 -11 77c-10.667 21.333 -33 32 -67 32h-7
c-53.333 0 -86 -9 -98 -27c-44 -25.333 -91.667 -55.333 -143 -90c-6.66699 -34.667 -10 -78.667 -10 -132c0 -21.333 0.666992 -53.333 2 -96s2 -74.334 2 -95.001c0 -60 -21 -90 -63 -90c-33.333 0 -50 11.667 -50 35v812c0 5.33301 5 12 15 20
c7.33301 12 21.666 18 42.999 18c14 0 26.833 -3.5 38.5 -10.5s17.5 -17.167 17.5 -30.5v-250c0 -24 7.66699 -35.667 23 -35c63.333 40.667 98.333 62.667 105 66c30 14 70.667 21 122 21c67.333 0 119.666 -22.333 156.999 -67c20.667 -24.667 33.667 -62 39 -112
c1.33301 -15.333 2 -56 2 -122c0 -31.333 1.33301 -78.666 4 -141.999s4 -110.666 4 -141.999z" />
    <glyph glyph-name="i" unicode="i" 
d="M462 64c0 -14 -5.66699 -28.166 -17 -42.499s-24 -21.5 -38 -21.5h-332c-12.667 0 -23.667 6.33301 -33 19s-14 25.667 -14 39c0 26 12.333 42.333 37 49c10.667 2.66699 33.667 4 69 4c29.333 0 47.333 4.33301 54 13c4.66699 40.667 6.66699 86 6 136v229
c0 14.667 -7.66699 22 -23 22h-91c-12 0 -22.833 5 -32.5 15s-14.5 21 -14.5 33c0 11.333 2.66699 23 8 35c6 15.333 13.667 23 23 23h157c53.333 0 80 -14 80 -42v-374c0 -4.66699 -0.5 -11.834 -1.5 -21.501s-1.5 -16.834 -1.5 -21.501c0 -23.333 3.66699 -37.333 11 -42
c4 -2.66699 18.667 -4.66699 44 -6c40 -1.33301 62.667 -2.66602 68 -3.99902c27.333 -6 41 -20 41 -42zM301 788.001c0 -16 -6.33203 -28.833 -18.999 -38.5s-27.334 -14.5 -44.001 -14.5c-36 0 -61 5.33301 -75 16c-16.667 12 -25 35.333 -25 70c0 37.333 12 61.333 36 72
h42c56.667 0 85 -13 85 -39v-66z" />
    <glyph glyph-name="j" unicode="j" 
d="M487 529c0 -7.33301 -1.00098 -18.334 -3.00098 -33.001s-3 -25.667 -3 -33c0 -64 -0.5 -159.833 -1.5 -287.5s-1.5 -223.5 -1.5 -287.5c0 -27.333 -11.333 -56 -34 -86c-20 -26.667 -43.333 -47.334 -70 -62.001c-17.333 -9.33301 -30 -14 -38 -14h-159
c-36 0 -69.667 17.333 -101 52s-47 70.334 -47 107.001c0 16.667 6 30.167 18 40.5s26.333 15.5 43 15.5c22.667 0 37.667 -8.16699 45 -24.5l21 -48.5c12.667 -17.333 37 -26.333 73 -27h29c62.667 -0.666992 97.334 13.333 104.001 42c4 16.667 6 38.334 6 65.001
c0 21.333 -0.333008 43 -1 65c2.66699 90.667 4 175.667 4 255v189c0 6.66699 -2 15.5 -6 26.5s-8.66699 16.5 -14 16.5h-142c-8 0 -19.667 5 -35 15s-23 18.667 -23 26v43c14 21.333 24.667 32 32 32h204c40.667 0 66.667 -4 78 -12c14.667 -10.667 22 -35.667 22 -75z
M390.999 743.999c-48 0 -72 15.333 -72 46v76c0 7.33301 4 15.833 12 25.5s15.667 14.5 23 14.5h87c20.667 0 34.667 -6 42 -18c4.66699 -8.66699 7 -24 7 -46c0 -44.667 -5.5 -72.167 -16.5 -82.5s-38.5 -15.5 -82.5 -15.5z" />
    <glyph glyph-name="k" unicode="k" 
d="M591 41c-21.333 -27.333 -41.001 -40.999 -59.001 -40.999c-6.66699 0 -15.334 2 -26.001 6c-5.33301 5.33301 -13.666 12 -24.999 20l-214 188c-11.333 10.667 -22.333 21.667 -33 33c-15.333 13.333 -28.666 20 -39.999 20c-12 0 -24.167 -5.83301 -36.5 -17.5
s-18.5 -23.5 -18.5 -35.5v-150c0 -18 -12.667 -37.333 -38 -58h-20c-10 0 -20.667 2.66699 -32 8c-13.333 6.66699 -20 14.667 -20 24v811c0 15.333 10.667 27.666 32 36.999h20c40.667 0 61 -18.333 61 -55v-429c0 -5.33301 3.66699 -8 11 -8c12 0 63.333 42 154 126
s148.667 126 174 126c16.667 0 30.334 -6.33301 41.001 -19s16 -27.667 16 -45c0 -15.333 -15.667 -36 -47 -62l-68 -51c-10.667 -10 -27.334 -24.333 -50.001 -43c-51.333 -38.667 -77 -63 -77 -73c0 -19.333 22 -41.333 66 -66c6.66699 -8 48.667 -43.667 126 -107
c68.667 -56 103 -89 103 -99v-40z" />
    <glyph glyph-name="l" unicode="l" 
d="M489 58c0 -12 -5.83398 -24.666 -17.501 -37.999s-23.5 -20 -35.5 -20h-366c-11.333 0 -21.333 7 -30 21c-7.33301 12 -11 24.333 -11 37c0 28.667 16.667 47 50 55c12.667 2.66699 40.667 4.66699 84 6h26c10 6 15 32 15 78v552c0 18.667 -8 28 -24 28h-113
c-21.333 20 -32 37.333 -32 52c0 14 3 26.667 9 38c6.66699 14 16.334 21 29.001 21h192c11.333 0 22.833 -4.16699 34.5 -12.5s17.5 -17.833 17.5 -28.5c-2 -388.667 -3 -581.334 -3 -578.001v-132c0 -15.333 19.333 -23 58 -23h22c30 -0.666992 51.667 -3.66699 65 -9
c20 -8 30 -23.667 30 -47z" />
    <glyph glyph-name="m" unicode="m" 
d="M617 32c-18.667 -21.333 -36.002 -32.0059 -52.002 -32.0059c-40 0 -60 32.333 -60 97c0 7.33301 0.333008 16.833 1 28.5s1 19.5 1 23.5c0 51.333 -1.66699 130 -5 236c1.33301 26 0 63.667 -4 113c-4 18 -13.667 27 -29 27c-11.333 0 -26.333 -8.33301 -45 -25
s-31 -31 -37 -43c-2.66699 -5.33301 -4 -14 -4 -26c0 -5.33301 0.333008 -13.166 1 -23.499s1 -18.166 1 -23.499c0 -26 -0.666992 -64.833 -2 -116.5s-2 -90.5 -2 -116.5c0 -39.333 1 -70.333 3 -93c-10.667 -36.667 -31 -55 -61 -55c-14.667 0 -27 5.83301 -37 17.5
s-15 25.167 -15 40.5v75c0 26.667 0.5 67 1.5 121s1.5 94.667 1.5 122v130c0 12 -10 18 -30 18c-14 0 -32 -9 -54 -27c-18 -15.333 -32 -30.666 -42 -45.999c0 -15.333 -0.833008 -39 -2.5 -71s-2.5 -56 -2.5 -72v-253c0 -15.333 -6.83301 -28.333 -20.5 -39
s-28.167 -16 -43.5 -16c-22 0 -38.667 13.667 -50 41v89c0 194.667 1 342.334 3 443.001c0.666992 46.667 16.334 70 47.001 70c18 0 31 -3 39 -9c16.667 -12 26.667 -18.667 30 -20h3c1.33301 0 11.666 4.83301 30.999 14.5s37.333 14.5 54 14.5
c29.333 0 56.833 -7.83301 82.5 -23.5s39.834 -23.5 42.501 -23.5c-2.66699 0 11.833 7.83301 43.5 23.5s60.834 23.5 87.501 23.5c25.333 0 49 -9.66699 71 -29s36 -41.666 42 -66.999c8 -33.333 12 -106.666 12 -219.999v-298z" />
    <glyph glyph-name="n" unicode="n" 
d="M588 35c-11.333 -23.333 -26 -35 -44 -35c-32 0 -52.333 16 -61 48c-3.33301 13.333 -5 42.333 -5 87c0 112 -2.33301 215.333 -7 310c-1.33301 30 -7.16602 50.833 -17.499 62.5s-29.833 17.5 -58.5 17.5h-30c-13.333 -0.666992 -23.333 -1 -30 -1
c-4 0 -9.33301 -0.833008 -16 -2.5s-11 -2.83398 -13 -3.50098l-93 -55c-48 -29.333 -72.333 -49.666 -73 -60.999c-2 -31.333 -3 -142 -3 -332c0 -16.667 -5.33301 -32 -16 -46s-24 -21 -40 -21c-11.333 0 -22.333 3 -33 9c-12.667 7.33301 -19 16 -19 26v570
c0 8.66699 5.66699 17.167 17 25.5s21.333 12.5 30 12.5c22.667 0 39.334 -7 50.001 -21c5.33301 -7.33301 10.666 -20.333 15.999 -39c4 -14 9 -21 15 -21c1.33301 0 24.166 13.5 68.499 40.5s81.833 40.5 112.5 40.5h46c30 0 51.333 -1 64 -3c54.667 -10 93 -39 115 -87
c16.667 -36 25 -85.667 25 -149v-372z" />
    <glyph glyph-name="o" unicode="o" 
d="M602 195c0 -4 -3.16602 -16.165 -9.49902 -36.498s-10.833 -32.5 -13.5 -36.5c-7.33301 -12.667 -25 -31.167 -53 -55.5s-49 -39.833 -63 -46.5c-2.66699 -1.33301 -19.334 -8 -50.001 -20h-195c-21.333 0 -42.333 7.66699 -63 23c-8 6 -24.667 21.667 -50 47
c-31.333 30.667 -49.666 50 -54.999 58c-13.333 19.333 -20.333 44.666 -21 75.999v10c-1.33301 32 -1.33301 74 0 126c2 63.333 3 105.333 3 126c0 33.333 22.167 72.166 66.5 116.499s83.166 66.5 116.499 66.5h204c2 0 14.667 -5 38 -15
c38.667 -16 71.667 -39.667 99 -71c30.667 -34.667 46 -71 46 -109v-259zM489.001 215.002v230c0 15.333 -7 29.666 -21 42.999c-6 6.66699 -19.333 16.667 -40 30c-15.333 10 -39.666 15 -72.999 15c-88 0 -134.667 -3 -140 -9c-48 -24.667 -72 -54 -72 -88v-218
c0 -19.333 10.667 -40.666 32 -63.999s41.666 -35 60.999 -35h166c58 36.667 87 68.667 87 96z" />
    <glyph glyph-name="p" unicode="p" 
d="M594 217c0 -26.667 -26.668 -66 -80.001 -118c-46 -45.333 -85.333 -76.666 -118 -93.999c-18.667 -10 -48 -15 -88 -15c-32 0 -66.5 12.167 -103.5 36.5s-55.833 36.5 -56.5 36.5c-4.66699 0 -8.33398 -3 -11.001 -9c-4 -8.66699 -6 -84.334 -6 -227.001
c0 -14 -4.83301 -26.167 -14.5 -36.5s-21.5 -15.5 -35.5 -15.5c-27.333 0 -44.666 13.667 -51.999 41v815c0 34.667 19.333 52 58 52c17.333 0 30 -5.66699 38 -17c2.66699 -4.66699 6.33398 -15.667 11.001 -33c3.33301 -11.333 8.33301 -17 15 -17c4 0 19 11.667 45 35
s52 35 78 35h81c34.667 0 83.167 -27.5 145.5 -82.5s93.5 -99.5 93.5 -133.5v-253zM488.999 331c0 36 -1 67 -3 93c-1.33301 20.667 -7.33301 37.667 -18 51c-6 8 -19.333 20 -40 36l-47 39c-20.667 14.667 -39 22 -55 22c-26.667 0 -47 -4.33301 -61 -13
c-5.33301 -3.33301 -21 -17.333 -47 -42c-34 -32 -53.333 -51 -58 -57c-19.333 -23.333 -29 -48 -29 -74v-20c0 -47.333 3 -84.333 9 -111c3.33301 -14 25.5 -41.167 66.5 -81.5s68.167 -60.5 81.5 -60.5h55c14.667 6 48.667 32 102 78c12 10.667 19.667 18 23 22
c7.33301 8 12.333 17.333 15 28c4 17.333 6 47.333 6 90z" />
    <glyph glyph-name="q" unicode="q" 
d="M594 52c0 -2 -0.500977 -4.50098 -1.50098 -7.50098s-1.5 -5.5 -1.5 -7.5v-235c0 -12.667 -6.33301 -23.167 -19 -31.5s-25.667 -12.5 -39 -12.5c-22 0 -38.667 13.667 -50 41v49c0 20.667 0.5 51.667 1.5 93s1.5 72.333 1.5 93c0 16 -4 24 -12 24
c-12.667 0 -27.667 -7 -45 -21c-20.667 -16.667 -34.667 -26.334 -42 -29.001c-24 -9.33301 -62.667 -14 -116 -14c-60.667 0 -101.667 9.66699 -123 29l-81 73c-19.333 17.333 -31.333 46.666 -36 87.999c-1.33301 14.667 -2 48 -2 100c0 10.667 -0.333008 26.667 -1 48
s-1 37.666 -1 48.999c0 60 7.33301 105.667 22 137c12.667 16.667 33.334 39.667 62.001 69c11.333 9.33301 46 27 104 53h134c36 0 76 -21.333 120 -64h5c4.66699 0 10.5 10.667 17.5 32s16.833 32 29.5 32h44c12.667 -12.667 20 -21 22 -25c4.66699 -8 7 -19 7 -33v-184
c0 -24 -0.5 -60.333 -1.5 -109s-1.5 -85 -1.5 -109c0 -3.33301 0.5 -8.66602 1.5 -15.999s1.5 -12.666 1.5 -15.999c0 -7.33301 -0.5 -18.5 -1.5 -33.5s-1.5 -26.167 -1.5 -33.5c0 -3.33301 0.5 -8.16602 1.5 -14.499s1.5 -11.166 1.5 -14.499zM278.999 528.999
c-25.333 0 -44.832 -1.00098 -58.499 -3.00098s-29.334 -11.167 -47.001 -27.5s-27.834 -31.5 -30.501 -45.5c-4 -19.333 -6.33301 -41.333 -7 -66c-0.666992 -18 -1 -40.667 -1 -68c0.666992 -40 1 -62.333 1 -67c0 -30.667 1.33301 -50.667 4 -60
c14 -52.667 68.333 -79 163 -79c26.667 0 47 4 61 12c10.667 6 37.667 29 81 69c22.667 20.667 35.334 41.334 38.001 62.001c2 16 3 40.333 3 73c0 48.667 -5.66699 80.334 -17 95.001c-8.66699 11.333 -36 36.666 -82 75.999c-22.667 19.333 -58.667 29 -108 29z" />
    <glyph glyph-name="r" unicode="r" 
d="M597 425c0 -11.333 -6.83203 -20.999 -20.499 -28.999s-26.5 -12 -38.5 -12c-8.66699 0 -18.334 4 -29.001 12c-13.333 10 -21.333 21.667 -24 35c-1.33301 6 -2 20.667 -2 44c0 26.667 -13 43.667 -39 51c-10.667 2.66699 -34.334 4 -71.001 4c-17.333 0 -31 -1 -41 -3
c-17.333 -9.33301 -41.666 -25 -72.999 -47c-0.666992 -0.666992 -8.33398 -7.33398 -23.001 -20.001l-56 -39c-26.667 -19.333 -40 -34.666 -40 -45.999s-0.5 -28.166 -1.5 -50.499s-1.5 -39.166 -1.5 -50.499c0 -8.66699 0.5 -21.834 1.5 -39.501s1.5 -30.834 1.5 -39.501
v-76c0 -45.333 -1 -72 -3 -80c-7.33301 -26 -27.666 -39 -60.999 -39c-13.333 0 -24.5 5.83301 -33.5 17.5s-13.5 24.167 -13.5 37.5v472c0 36 2 60.667 6 74c8.66699 26 27 39 55 39c20 0 33.333 -8.66699 40 -26c2 -4.66699 4.33301 -20.334 7 -47.001
c2.66699 -17.333 8.33398 -26 17.001 -26c1.33301 0 24.166 17 68.499 51s80.833 51 109.5 51h122c16.667 0 36 -6.66699 58 -20c36.667 -22.667 61 -51 73 -85c8 -23.333 12 -61 12 -113z" />
    <glyph glyph-name="s" unicode="s" 
d="M594 172c0 -42 -14.668 -80.6689 -44.001 -116.002c-31.333 -37.333 -67.333 -56 -108 -56h-279c-24 0 -51.667 11 -83 33c-34 23.333 -51 46.333 -51 69c0 20 7.66699 36.333 23 49c13.333 2 30 3 50 3c4 0 12.667 -5 26 -15c15.333 -12 25 -18.667 29 -20
c14 -5.33301 42.333 -8 85 -8c22 0 55.167 0.833008 99.5 2.5s76.833 2.5 97.5 2.5c27.333 10 41 28.667 41 56c0 22.667 -13.333 42.334 -40 59.001c-4 2 -27.333 12.333 -70 31c-14 4.66699 -34.667 12.334 -62 23.001l-154 73c-6.66699 2 -16.667 6 -30 12
c-20.667 11.333 -37.334 29.333 -50.001 54s-19 49.334 -19 74.001c0 33.333 11.833 63.666 35.5 90.999s51.834 43.333 84.501 48c16 2 37.333 3 64 3h212c30 0 58.667 -9.66699 86 -29c30 -22 45 -47.333 45 -76c0 -13.333 -4.5 -24.833 -13.5 -34.5
s-20.167 -14.5 -33.5 -14.5c-17.333 0 -32 5 -44 15c-14.667 12.667 -26 20.334 -34 23.001c-15.333 4.66699 -44.333 7 -87 7c-110.667 0 -170 -1.33301 -178 -4c-15.333 -5.33301 -23 -16 -23 -32c0 -14 5.66699 -23.667 17 -29l149 -67l50 -23.5
c16 -7.66699 35 -14.5 57 -20.5c42.667 -12 78.334 -34.333 107.001 -67c30 -34.667 45 -73.334 45 -116.001z" />
    <glyph glyph-name="t" unicode="t" 
d="M585 151c0 -36.667 -16.5039 -71 -49.5039 -103s-67.833 -48 -104.5 -48h-152c-15.333 0 -36.666 9.5 -63.999 28.5s-44.666 35.833 -51.999 50.5c-13.333 26 -20 58 -20 96v326c0 16.667 -9.5 26.667 -28.5 30s-37.5 6.33301 -55.5 9c-20 6.66699 -30 21.667 -30 45
c0 31.333 10.333 51 31 59c9.33301 3.33301 33 5 71 5c2 0 6 4 12 12v133c0 13.333 6.66699 24.333 20 33c11.333 7.33301 24 11 38 11c15.333 0 27.833 -4.83301 37.5 -14.5s14.5 -22.167 14.5 -37.5v-128c0 -10 19.667 -15 59 -15c11.333 0 28.333 0.333008 51 1
s39.667 1 51 1c39.333 0 65 -1.66699 77 -5c28 -8 42 -26.333 42 -55c0 -16 -6.5 -29.167 -19.5 -39.5s-27.833 -15.5 -44.5 -15.5h-210c-4 -5.33301 -6.33301 -14 -7 -26c-1.33301 -9.33301 -1.66602 -21 -0.999023 -35c0.666992 -21.333 1 -31.333 1 -30
c0 -22.667 -0.833008 -57 -2.5 -103s-2.5 -80.333 -2.5 -103c0 -78 19.667 -117 59 -117h113c20.667 0 35.334 7.83301 44.001 23.5l25 46.5c11.333 16 30 24 56 24c12 0 25.667 -12.667 41 -38v-21z" />
    <glyph glyph-name="u" unicode="u" 
d="M588 614v-368.001c0 -19.333 -0.333008 -48.5 -1 -87.5s-1 -68.167 -1 -87.5c0 -45.333 -18.667 -68 -56 -68c-19.333 0 -33 6.66699 -41 20c-0.666992 2 -4.33398 14.667 -11.001 38c-3.33301 13.333 -10.333 20 -21 20c-12.667 0 -27.334 -6 -44.001 -18l-41 -28
c-13.333 -5.33301 -32.666 -15 -57.999 -29c-8 0 -20.667 -1 -38 -3s-30.666 -3 -39.999 -3c-108 0 -172 47.667 -192 143c-2 9.33301 -5 47 -9 113c-4 64 -6 139.667 -6 227v122c0 26 22.333 39 67 39c6 0 14.667 -5.16699 26 -15.5s15.333 -18.166 12 -23.499
c1.33301 -136 5 -277.667 11 -425c11.333 -25.333 23.333 -41.833 36 -49.5s33 -11.5 61 -11.5c32.667 0 62 6.33301 88 19c13.333 6 38.333 22 75 48c50 36 75 56.333 75 61v361c0 9.33301 7.16699 19 21.5 29s26.5 15 36.5 15c10.667 0 21.667 -3.83301 33 -11.5
s17 -16.5 17 -26.5z" />
    <glyph glyph-name="v" unicode="v" 
d="M594 486c0 -12.667 -4.99805 -27.6689 -14.998 -45.002c-14 -24 -21.667 -38 -23 -42c-12 -32 -30.667 -75.667 -56 -131c-28 -61.333 -47.333 -105 -58 -131c-20.667 -50.667 -32 -78 -34 -82c-18.667 -35.333 -38.334 -53.666 -59.001 -54.999h-55
c-24.667 0 -41.334 2.83301 -50.001 8.5s-18 20.334 -28 44.001s-26.667 58.5 -50 104.5c-2.66699 16.667 -9.66699 36 -21 58l-27 56c-2 7.33301 -5.33301 18 -10 32l-79 180v108c0 13.333 5.83301 25.333 17.5 36s24.167 16 37.5 16c39.333 0 59 -22.667 59 -68
c0 -5.33301 -0.5 -13.833 -1.5 -25.5s-1.5 -20.167 -1.5 -25.5c0 -15.333 5.66699 -34.666 17 -57.999c0 -0.666992 7 -15.334 21 -44.001c11.333 -23.333 30.333 -68 57 -134c22.667 -57.333 42.667 -101.666 60 -132.999c6.66699 -12 11 -18 13 -18
c4.66699 0 10.667 5.66699 18 17c4 6 14 27.333 30 64c16 41.333 42 102.666 78 183.999l28 53c12.667 24 19.667 42 21 54v39c0 33.333 2.66699 56.333 8 69c9.33301 19.333 29 29 59 29c10.667 0 20.667 -4.33301 30 -13s14 -18 14 -28v-119z" />
    <glyph glyph-name="w" unicode="w" 
d="M614 608l0.00488281 -136.999c0 -98 -4 -175.333 -12 -232c-2 -16 -9.66699 -44.333 -23 -85l-25 -90c-14.667 -41.333 -32.334 -62.666 -53.001 -63.999c-8 -0.666992 -27.333 -1 -58 -1c-26.667 0 -47.667 10.333 -63 31c-3.33301 4.66699 -13 24 -29 58
c-10 20.667 -21.333 31 -34 31c-7.33301 -5.33301 -23 -28 -47 -68c-20 -34 -37.333 -51 -52 -51h-90c-12.667 0 -24.334 16.667 -35.001 50c-12.667 40.667 -20.334 62.667 -23.001 66c-8.66699 28 -20.334 69.667 -35.001 125c0.666992 0 1 20 1 60
c0 24.667 -1.16699 62.167 -3.5 112.5s-3.5 88.166 -3.5 113.499v78c0 10 6 18.833 18 26.5s23.333 11.5 34 11.5c12.667 0 25.167 -3.83301 37.5 -11.5s18.5 -17.5 18.5 -29.5l6 -311c0.666992 -18 4.33398 -34.333 11.001 -49l12 -41c7.33301 -31.333 14 -47 20 -47
c7.33301 0 21.333 17.333 42 52c19.333 31.333 30.666 53 33.999 65c2.66699 8.66699 4 34 4 76c0 31.333 2.66699 54 8 68c9.33301 24 26.666 36 51.999 36c36.667 0 55 -22.333 55 -67l-3 -3c0.666992 -4.66699 -0.333008 -7.66699 -3 -9v-37c0 -32 4 -59.333 12 -82
c4 -10.667 13.667 -29 29 -55c18 -29.333 29.667 -44 35 -44c10 0 21.667 28.333 35 85c10 42.667 16 93.334 18 152.001c-0.666992 -16 -1 40 -1 168c0 29.333 3 49.666 9 60.999c9.33301 15.333 27.666 23 54.999 23c12.667 0 22.334 -3 29.001 -9
c2.66699 -2.66699 8.66699 -11.334 18 -26.001z" />
    <glyph glyph-name="x" unicode="x" 
d="M597 52c0 -14.667 -5.16797 -26.999 -15.501 -36.999s-22.833 -15 -37.5 -15c-22 0 -47 17.333 -75 52l-114 140l-18 25.5c-6 8.33301 -15.667 12.5 -29 12.5c-25.333 -18 -71.666 -69.333 -138.999 -154l-34 -45c-14.667 -16.667 -30.667 -25 -48 -25
s-31.333 5.33301 -42 16s-16 24.667 -16 42c0 8 2 17.667 6 29c12.667 11.333 27.667 27.333 45 48c22.667 28 36.667 45 42 51l105 125c6 6.66699 9 12.667 9 18c0 4.66699 -13.167 23.334 -39.5 56.001s-42.5 50.667 -48.5 54c-2 3.33301 -21.667 27.333 -59 72
c-26.667 33.333 -40 59 -40 77c0 21.333 5.33301 35.666 16 42.999c8 6 22.667 9 44 9h19c8 0 63.333 -65 166 -195c8 -10 15.667 -15 23 -15c6.66699 0 12.667 3 18 9l104 125l40 48c17.333 16.667 36 25 56 25c33.333 0 50 -19.333 50 -58
c0 -16.667 -5.16699 -30.334 -15.5 -41.001l-31.5 -32l-79 -93c-40 -49.333 -60 -80.333 -60 -93c0 -10 5.66699 -21.333 17 -34c10 -8.66699 19.667 -17.667 29 -27c23.333 -31.333 58.333 -75 105 -131c8 -8 19.667 -20.667 35 -38c8 -10 12 -24.667 12 -44z" />
    <glyph glyph-name="y" unicode="y" 
d="M599 495c0 -8 -19.333 -54.9951 -58 -140.995l-72 -158c-6 -6 -21.667 -36.333 -47 -91c-22 -48.667 -36.667 -82.334 -44 -101.001c-2.66699 -10.667 -8.33398 -26.334 -17.001 -47.001l-15 -35c-39.333 -102.667 -70.333 -154 -93 -154h-172
c-18.667 9.33301 -30.667 16.666 -36 21.999c-10.667 10 -16 23 -16 39c0 14.667 5.5 28 16.5 40s23.833 18 38.5 18h114c6 0 12.833 10 20.5 30s26.167 59.667 55.5 119v3c0 13.333 -6 21.666 -18 24.999c-17.333 4 -28 8 -32 12c-11.333 11.333 -23 32 -35 62l-26 69
l-73 166c-12 24.667 -28.333 62.667 -49 114c-4 3.33301 -6 7 -6 11v114c0 14.667 6 26.5 18 35.5s25.333 13.5 40 13.5c13.333 0 25.833 -3.66699 37.5 -11s17.5 -17 17.5 -29v-102c10.667 -18 22 -42 34 -72l30 -74c5.33301 -9.33301 12.333 -24 21 -44
c0.666992 -5.33301 2.66699 -13 6 -23l55 -116c2.66699 -6 8.33398 -9 17.001 -9c12.667 0 21.667 3 27 9c14 14.667 33.333 52.667 58 114l49 127c2 4.66699 12.333 23.334 31 56.001c16.667 29.333 25 45.333 25 48c0 7.33301 -1.5 17.666 -4.5 30.999
s-4.5 23.666 -4.5 30.999v27c16.667 22.667 36 34 58 34c11.333 0 22.333 -3.16699 33 -9.5s16 -14.5 16 -24.5v-129z" />
    <glyph glyph-name="z" unicode="z" 
d="M599 533c-5.33301 -13.333 -21.667 -35.667 -49 -67c-6 -2 -60.333 -53.667 -163 -155l-12 -5l-64 -70l-8 -3l-105 -102v-6c0 -9.33301 2 -14 6 -14h355c10.667 0 19.667 -5.83301 27 -17.5s11 -23.5 11 -35.5c0 -14.667 -3.83301 -28 -11.5 -40s-18.5 -18 -32.5 -18
h-480c-29.333 -0 -44 28.333 -44 85c0 26 3.66699 43.333 11 52c12.667 12 25.667 23.667 39 35l197 192l86 80c46.667 43.333 70.667 68 72 74v3c0 2 -2 5 -6 9h-315c-14 0 -25.667 6.16699 -35 18.5s-14 25.5 -14 39.5c0 13.333 4.16699 25.833 12.5 37.5
s18.833 17.5 31.5 17.5h459c9.33301 0 17 -4.83301 23 -14.5s9 -19.5 9 -29.5v-66z" />
    <glyph glyph-name="braceleft" unicode="{" 
d="M602 821c0 -14.667 -4.99902 -27.665 -14.999 -38.998s-22.333 -17 -37 -17h-154c-9.33301 0 -15.333 -8.33301 -18 -25c0.666992 -0.666992 1 -22 1 -64c0 -65.333 -1.33301 -114 -4 -146c-1.33301 -11.333 -7.5 -27 -18.5 -47s-16.5 -35.667 -16.5 -47
c0 -10 4 -21.667 12 -35c10 -16.667 16 -28 18 -34c2.66699 -9.33301 4 -44.333 4 -105c0 -12.667 0.333008 -23.334 1 -32.001c2.66699 -4 4 -8.33301 4 -13c0 -11.333 -0.666992 -28.166 -2 -50.499s-2 -39.166 -2 -50.499c8 -7.33301 13 -11 15 -11h175
c22.667 0 34 -24.333 34 -73c-8.66699 -21.333 -25 -32 -49 -32h-180c-32.667 0 -58.667 15 -78 45c-16 26 -24 56 -24 90c0 19.333 1 48.166 3 86.499s3 67.166 3 86.499c0 17.333 -5.33301 33.666 -16 48.999s-24 23.333 -40 24l-157 6
c-8.66699 0 -16.334 6.66699 -23.001 20c-6 11.333 -9 22 -9 32c26.667 37.333 48 56 64 56h134c2.66699 0 7.66699 2.66699 15 8c21.333 16 32 42.333 32 79c0 15.333 -1.16699 38.5 -3.5 69.5s-3.5 54.167 -3.5 69.5c0 66.667 14.667 109.667 44 129
c20 13.333 34.667 20 44 20h198c14.667 0 26.5 -4.5 35.5 -13.5s13.5 -20.833 13.5 -35.5z" />
    <glyph glyph-name="bar" unicode="|" 
d="M361 0h-105v1290h105v-1290z" />
    <glyph glyph-name="braceright" unicode="}" 
d="M594 442c0 -12.667 -5.33398 -25.5 -16.001 -38.5s-22 -19.5 -34 -19.5h-122c-6 -2 -14.667 -6 -26 -12c-16 -10.667 -25.667 -25 -29 -43c-4 -21.333 -6.33301 -47.333 -7 -78c-0.666992 -20 0 -48 2 -84c1.33301 -39.333 2 -66 2 -80
c-8.66699 -22.667 -20.667 -42 -36 -58c-18.667 -19.333 -38.667 -29 -60 -29h-198c-12.667 0 -22.667 5.66699 -30 17s-11 24 -11 38c0 31.333 12.667 49 38 53c12.667 2 63 3 151 3c18 0 29.333 5.66699 34 17c2.66699 6 4 19.667 4 41v171
c0 17.333 6.33301 36.833 19 58.5s19 36.167 19 43.5c0 2.66699 -6.33301 16.167 -19 40.5s-19 46.833 -19 67.5v201c0 4 -4 9.66699 -12 17c-4.66699 0 -12.167 0.5 -22.5 1.5s-18.166 1.5 -23.499 1.5h-117c-13.333 0 -24.833 5.66699 -34.5 17s-14.5 24 -14.5 38
c0 26.667 12.667 43.667 38 51c10.667 3.33301 34 5 70 5c7.33301 0 18.333 0.333008 33 1h34c59.333 0 102 -12 128 -36c21.333 -20 32 -38.333 32 -55v-236c0 -10 5.33301 -22.167 16 -36.5s20.667 -21.5 30 -21.5h131c14 0 25.833 -5.83301 35.5 -17.5
s14.5 -24.5 14.5 -38.5z" />
    <glyph glyph-name="asciitilde" unicode="~" 
d="M597 521c0 -10 -8.33398 -18.001 -25.001 -24.001c-12.667 -5.33301 -25 -8 -37 -8c-32.667 0 -49 26 -49 78c0 18.667 0.333008 47 1 85v84c0 20.667 -6.33301 33.334 -19 38.001c-5.33301 2 -21.666 3 -48.999 3c-23.333 0 -39.666 -5.66699 -48.999 -17
c0 -79.333 -0.666992 -203.333 -2 -372c-0.666992 -164 -1 -287.667 -1 -371c-7.33301 -11.333 -14.333 -17 -21 -17h-299c-2.66699 0 -6.33398 2.16699 -11.001 6.5s-7 7.83301 -7 10.5v338c0 10.667 6 21.167 18 31.5s23.333 15.5 34 15.5c12.667 0 25 -2.66699 37 -8
c14.667 -6.66699 22 -15.667 22 -27l-1 -222c0 -11.333 2 -20 6 -26l9 -6h90c10 0 15 44.667 15 134v623c7.33301 8 13 12 17 12h303c12 0 18 -3 18 -9v-352z" />
    <glyph glyph-name="nonbreakingspace" unicode="&#xa0;" 
 />
    <glyph glyph-name="sterling" unicode="&#xa3;" 
d="M597 67c0 -44.667 -25.3369 -67 -76.0039 -67h-442c-13.333 0 -25 6.66699 -35 20s-15 27 -15 41c0 23.333 9.66699 38.333 29 45c6 2 26 4.66699 60 8c24.667 2.66699 40.667 9.33398 48 20.001c2.66699 33.333 11.334 66.666 26.001 99.999
c3.33301 5.33301 7.33301 13.666 12 24.999l23 87c6 6 9 15.667 9 29c0 12 -24.667 19.333 -74 22c9.33301 -0.666992 -18.334 -1 -83.001 -1c-12.667 0 -23.667 6 -33 18s-14 24.333 -14 37c0 14 4.83301 26.667 14.5 38s21.167 17 34.5 17h175c11.333 0 23 14.333 35 43
c8 20.667 13.667 40.334 17 59.001c2.66699 16 13.334 54.667 32.001 116c19.333 64 32 100 38 108c4 1.33301 9 4.33301 15 9c29.333 23.333 51.333 37.833 66 43.5s39 8.5 73 8.5c20 0 32.667 -1.33301 38 -4c8.66699 -3.33301 17.667 -12.666 27 -27.999v-17
c0 -24 -10.333 -40.333 -31 -49c-10.667 -4 -31.667 -7 -63 -9c-27.333 -12.667 -46.666 -38 -57.999 -76l-49 -166c-4 -13.333 -6 -22.333 -6 -27s4 -8.33398 12 -11.001l5 -5h149c8.66699 0 17.667 -5.16699 27 -15.5s14 -19.833 14 -28.5c0 -16.667 -4.33301 -31 -13 -43
s-21 -18 -37 -18h-180c-10 0 -19 -10.667 -27 -32c-6 -14.667 -12.333 -37.5 -19 -68.5s-12.667 -53.833 -18 -68.5c-19.333 -51.333 -29 -84.333 -29 -99c0 1.33301 1.66699 -2.66699 5 -12l3 -3c26.667 0 69.334 -0.333008 128.001 -1
c56.667 -0.666992 99.334 -1 128.001 -1c12.667 0 25.667 -4.33301 39 -13s20 -19 20 -31z" />
    <glyph glyph-name="yen" unicode="&#xa5;" 
d="M594 332c0 -30 -36.6699 -45 -110.003 -45h-29c-11.333 0.666992 -18.333 1 -21 1c-46.667 0 -70 -6.66699 -70 -20v-224c0 -13.333 -5.83301 -24 -17.5 -32s-24.5 -12 -38.5 -12c-34.667 -0 -52 18.333 -52 55c0 99.333 -1 173 -3 221c-9.33301 6 -63.666 9 -162.999 9
c-14.667 0 -28.5 5.5 -41.5 16.5s-19.5 23.833 -19.5 38.5c0 12 3.33301 23.667 10 35c8 14 17.333 21 28 21h151c23.333 0 35 7.66699 35 23c0 16 -7 35.333 -21 58l-34 53l-134 238c-2.66699 2.66699 -6.66699 7.33398 -12 14.001c-15.333 20 -23 40.667 -23 62
c0 12.667 6 23.5 18 32.5s24.333 13.5 37 13.5c22 0 39.667 -8.66699 53 -26c5.33301 -12.667 14 -31 26 -55c14.667 -28.667 39.334 -72.334 74.001 -131.001c42.667 -72.667 67.334 -109.667 74.001 -111c6.66699 2 36 49.667 88 143
c54.667 97.333 90.334 152.666 107.001 165.999c10 8 21.667 12 35 12c14 0 26.333 -5 37 -15s16 -21.667 16 -35c0 -18.667 -7 -39.667 -21 -63l-38 -56l-92 -158c-8.66699 -16.667 -22.334 -41.667 -41.001 -75c-8 -11.333 -18.667 -28.666 -32 -51.999v-12
c0 -19.333 4.66699 -29 14 -29h160c12 0 23.333 -7 34 -21s16 -27.333 16 -40z" />
    <glyph glyph-name="minus" unicode="&#xad;" 
d="M594 401c0 -16 -3.33203 -28.666 -9.99902 -37.999l-28 -28c-1.33301 -4 -4.33301 -6 -9 -6h-91c-40.667 -0.666992 -71.334 -1 -92.001 -1h-105c-9.33301 0 -23.333 0.333008 -42 1h-43c-44.667 0 -69.334 0.333008 -74.001 1
c-30.667 3.33301 -51.667 13.666 -63 30.999c-5.33301 8 -8 13.667 -8 17v39c0 50 14.667 75 44 75h462c26.667 0 46.334 -13.667 59.001 -41v-50z" />
    <glyph glyph-name="Agrave" unicode="&#xc0;" 
d="M594 169c0 -15.333 -6.33398 -27.333 -19.001 -36s-26.667 -13 -42 -13c-17.333 0 -41.666 23.333 -72.999 70l-3 6l-70 108c-34.667 52 -59 83.667 -73 95h-3c-8.66699 0 -43.334 -46.333 -104.001 -139l-52 -86c-25.333 -36 -50.666 -54 -75.999 -54
c-33.333 0 -50 23.333 -50 70l166 324c12.667 26.667 33 65 61 115c13.333 21.333 30 32 50 32c18 0 33.333 -7.66699 46 -23c6.66699 -8 25 -41 55 -99l88 -172l58 -99c27.333 -48 41 -81 41 -99z" />
    <glyph glyph-name="Aacute" unicode="&#xc1;" 
d="M599 44c0 -8 -6.16797 -17.332 -18.501 -27.999s-22.5 -16 -30.5 -16c-25.333 0 -45.666 12.667 -60.999 38v292c0 36 -6.66699 54 -20 54h-318l-11 -14v-315c0 -7.33301 -4.66699 -17.833 -14 -31.5s-17.333 -20.5 -24 -20.5h-38c-7.33301 0 -15 4.5 -23 13.5
s-12 17.167 -12 24.5v433c0 5.33301 2 11.166 6 17.499s8.66699 9.5 14 9.5h425l12 11v326c0 12.667 5.5 23.667 16.5 33s22.833 14 35.5 14s25 -2.33301 37 -7c16 -6.66699 24 -15 24 -25v-809z" />
    <glyph glyph-name="Acircumflex" unicode="&#xc2;" 
d="M597 413c0 -4.66699 -3.83105 -10.165 -11.498 -16.498s-13.834 -9.5 -18.501 -9.5h-180c-5.33301 0 -12 -5 -20 -15v-328c0 -13.333 -5.83301 -24 -17.5 -32s-24.5 -12 -38.5 -12c-22 0 -39.333 12.667 -52 38v337l-17 15h-193c-6.66699 7.33301 -12.334 12 -17.001 14
c-2 7.33301 -3 10.333 -3 9v428c0 4 5 13.667 15 29c8 12 21.333 18 40 18c37.333 0 56 -17.667 56 -53c0 -177.333 1 -284 3 -320l14 -14c58 -2 97.667 -3 119 -3h132c26.667 0 46 1 58 3c9.33301 1.33301 15 10.166 17 26.499s3 50.166 3 101.499v212
c0 12.667 5.33301 23.167 16 31.5s22.667 12.5 36 12.5c15.333 0 29 -5 41 -15s18 -22.667 18 -38v-419z" />
    <glyph glyph-name="Atilde" unicode="&#xc3;" 
d="M646 0h-630v315h105v-222h152v681h-152v-200h-105v302h630v-302h-103v200h-154v-681h154v222h103v-315z" />
    <glyph glyph-name="Adieresis" unicode="&#xc4;" 
d="M594 49c0 -14 -4.83398 -25.666 -14.501 -34.999s-21.5 -14 -35.5 -14c-22.667 0 -41 11.333 -55 34c-4.66699 8 -13.334 29.667 -26.001 65c-9.33301 24.667 -19.333 38.5 -30 41.5s-26 4.5 -46 4.5h-198c-10.667 0 -20 -12.333 -28 -37
c-14 -39.333 -22.667 -62 -26 -68c-13.333 -24.667 -31.333 -37 -54 -37c-18 0 -35.333 10.667 -52 32v17c0 15.333 4.33301 32.666 13 51.999l22 50l58 146c4.66699 16.667 12.334 41.667 23.001 75l57 133c8.66699 24 22.667 60.333 42 109c20 44.667 44.333 67 73 67
c26.667 0 45 -12.667 55 -38l97 -261c8 -24 21.333 -59.333 40 -106l12 -23c6.66699 -19.333 17.334 -48.333 32.001 -87l27 -58c9.33301 -23.333 14 -44 14 -62zM395.999 265.001c0 10 -9.66699 37.001 -29 81.001l-25 63c-14 34 -23.333 51 -28 51
c-6.66699 0 -22.667 -29.333 -48 -88s-38.333 -95.334 -39 -110.001l12 -12h139c12 0 18 5 18 15zM139.999 722.002c0 -9.33301 -5.83203 -18.001 -17.499 -26.001s-22.5 -12 -32.5 -12c-16 0 -30.167 5.16699 -42.5 15.5s-18.5 23.5 -18.5 39.5v99c0 12 8 22.333 24 31
c13.333 6.66699 26.666 10 39.999 10c20 0 34.667 -10.667 44 -32c0 -6.66699 0.5 -17.167 1.5 -31.5s1.5 -25.166 1.5 -32.499v-61zM600 772.001c0 -26.667 -1 -43.333 -3 -50c-2.66699 -10 -9 -18.833 -19 -26.5s-20.333 -11.5 -31 -11.5
c-11.333 0 -23.333 3.33301 -36 10c-14.667 8 -22 17.333 -22 28v113c0 12 6 22.333 18 31s24.333 13 37 13c28.667 0 46 -12 52 -36c2.66699 -8 4 -31.667 4 -71z" />
    <glyph glyph-name="Aring" unicode="&#xc5;" 
d="M594 61c0 -40.667 -20.335 -60.999 -61.002 -60.999c-20 0 -36 15.333 -48 46c0 0.666992 -8.33301 30.334 -25 89.001c-8.66699 32.667 -19.334 50.667 -32.001 54c-9.33301 2.66699 -23.666 4 -42.999 4c-23.333 0 -56.333 -0.666992 -99 -2
c-46 -1.33301 -79.333 -2 -100 -2c-10.667 -10.667 -20.334 -33.334 -29.001 -68.001c-11.333 -42.667 -19.666 -69.667 -24.999 -81c-12.667 -26.667 -29.667 -40 -51 -40c-34.667 0 -52 18.333 -52 55c0 18 3.66699 37.333 11 58l21 56
c9.33301 25.333 30.333 95.333 63 210c34 120 51 185.667 51 197c0 8 -7.66699 17 -23 27c-20 13.333 -34.333 25.333 -43 36c-15.333 21.333 -22.666 49 -21.999 83v38c0 38.667 11.333 70.5 34 95.5s53 37.5 91 37.5h222c32.667 0 59.334 -15 80.001 -45
c18 -26.667 27 -57 27 -91c0 -60.667 -7 -99 -21 -115s-26.333 -28.333 -37 -37l-23 -12.5c-8 -4.33301 -12 -10.833 -12 -19.5c0 -6 4 -18.667 12 -38c12.667 -30.667 25 -70 37 -118l30 -120c4.66699 -7.33301 17 -46.333 37 -117s30 -110.334 30 -119.001z
M401.998 323.001c0 10 -2.66797 22.332 -8.00098 36.999c-7.33301 19.333 -11.666 31.333 -12.999 36l-24 103c-15.333 55.333 -28.666 83 -39.999 83c-16 0 -27 -10 -33 -30l-10 -49c-4.66699 -11.333 -14.334 -42.666 -29.001 -93.999c-16 -53.333 -24 -83 -24 -89
c0 -11.333 6.33301 -17 19 -17h120c28 2 42 8.66699 42 20zM427.997 716l-0.000976562 46.001c0 3.33301 -2.66699 7.16602 -8 11.499s-9.66602 6.5 -12.999 6.5c-11.333 0 -28.333 0.5 -51 1.5s-39.667 1.5 -51 1.5h-34c-10 0 -29.667 -1 -59 -3l-14 -12v-52
c0 -4 4.66699 -10 14 -18h192c16 0 24 6 24 18z" />
    <glyph glyph-name="AE" unicode="&#xc6;" 
d="M594 821c-13.333 -11.333 -23.002 -20.334 -29.002 -27.001c-8 -3.33301 -51.667 -5 -131 -5c-6 -4 -9 -7 -9 -9v-268c0 -5.33301 4.66699 -8.33301 14 -9l117 -8c23.333 -1.33301 35 -25.666 35 -72.999c-11.333 -16.667 -29.333 -26.667 -54 -30h-64
c-34 0 -51 -12.333 -51 -37v-227c0 -13.333 14.667 -20 44 -20c7.33301 0 16.333 0.333008 27 1s17.334 1 20.001 1c52 0 78 -21 78 -63c0 -13.333 -6.16699 -24.5 -18.5 -33.5s-25.5 -13.5 -39.5 -13.5h-146c-16 0 -31.333 3.66699 -46 11c-18 9.33301 -27 21.333 -27 36
c0 8.66699 0.5 21.167 1.5 37.5s1.5 28.833 1.5 37.5c0 2.66699 -2 23 -6 61c-5.33301 8 -31.666 12 -78.999 12h-11c-19.333 0 -32.5 -7.66699 -39.5 -23s-13.167 -31 -18.5 -47c-29.333 -81.333 -50.666 -122 -63.999 -122h-35c-6 0 -13.333 5.66699 -22 17
s-13 20.333 -13 27c0 23.333 6.66699 51 20 83l35 80l216 596c11.333 30 18.666 48.333 21.999 55c12.667 21.333 27.667 32 45 32h127c66.667 0 100 -11.667 100 -35v-37zM316.998 412.999v56c0 12.667 -3 19.334 -9 20.001c-7.33301 -6 -19.833 -32.833 -37.5 -80.5
s-26.5 -77.167 -26.5 -88.5c0 -9.33301 3 -14 9 -14h44c6 0 11.667 5.66699 17 17c0 9.33301 0.5 24.166 1.5 44.499s1.5 35.5 1.5 45.5z" />
    <glyph glyph-name="Ntilde" unicode="&#xd1;" 
d="M588 538v-247c0 -24.667 -0.333008 -61.334 -1 -110.001v-110c0 -47.333 -17.333 -71 -52 -71c-15.333 0 -26.666 4 -33.999 12l-318 334c-0.666992 0.666992 -12.334 10.334 -35.001 29.001v3l-3 -3l-11 -5c-2 -29.333 -3 -120.666 -3 -273.999
c0 -32.667 -2 -54.334 -6 -65.001c-8 -20.667 -25.333 -31 -52 -31c-12 -0 -22.333 4.33301 -31 13s-13 19 -13 31v491c0 9.33301 4.66699 21 14 35s18.333 21 27 21c20 0 43.333 -13 70 -39l56 -63c6.66699 -7.33301 17 -18 31 -32l215 -230l18 -15h3l6 3v169
c0 10 2.83301 24.333 8.5 43s8.5 32.667 8.5 42v21c-0.666992 10 -1 17 -1 21c0 55.333 13 83 39 83c14 0 28.167 -6 42.5 -18s21.5 -24.667 21.5 -38zM588 774c-12.667 -27.333 -32.998 -41.001 -60.998 -41.001c0.666992 0 -9 1 -29 3
c-42 4.66699 -105.333 9.66699 -190 15c-16.667 0.666992 -42.5 3.66699 -77.5 9s-61.5 8 -79.5 8c-8 0 -19.333 -5.83301 -34 -17.5s-28.334 -17.5 -41.001 -17.5c-10 0 -19.833 3.5 -29.5 10.5s-14.5 15.167 -14.5 24.5v70c0 12.667 6.33301 22.334 19 29.001
c10.667 6 22.667 9 36 9c29.333 0 52.666 -1 69.999 -3l282 -32c4 -0.666992 8 -1 12 -1l26 1c24 27.333 44.333 41 61 41c33.333 0 50 -26.667 50 -80v-28z" />
    <glyph glyph-name="Odieresis" unicode="&#xd6;" 
d="M585 346c0 -36.667 -11.668 -73.9971 -35.001 -111.997c0 -0.666992 -23.333 -33 -70 -97c-41.333 -56.667 -65.333 -88.334 -72 -95.001c-28.667 -28 -64.667 -42 -108 -42c-35.333 0 -64 8.66699 -86 26c-14.667 11.333 -31.334 32 -50.001 62
c-20.667 32.667 -37.667 55.667 -51 69c-4.66699 11.333 -12.667 24.666 -24 39.999c-16 22 -25.333 35 -28 39c-21.333 34.667 -32 71.334 -32 110.001c0 40 13 82 39 126c5.33301 9.33301 31 46 77 110c28 38.667 50 64.667 66 78c26.667 22 58.334 33 95.001 33
c56.667 0 98.334 -18.667 125.001 -56c20.667 -28 49.667 -70.667 87 -128c8 -10.667 19.667 -27.334 35 -50.001c21.333 -32.667 32 -70.334 32 -113.001zM476.999 352.003c0 28 -16.6689 64.6689 -50.002 110.002l-75 100c-8 13.333 -25.333 20 -52 20
c-14.667 0 -28.667 -7.66699 -42 -23c-4 -4.66699 -13.333 -18.334 -28 -41.001c-12.667 -16.667 -30 -43 -52 -79c-12.667 -9.33301 -23.167 -23.5 -31.5 -42.5s-12.5 -36.833 -12.5 -53.5c0 -28 13 -60 39 -96l66 -84c4.66699 -8.66699 13.334 -20.334 26.001 -35.001
c12.667 -10 26.334 -15 41.001 -15c20.667 0 46 20.333 76 61l60 91c23.333 33.333 35 62.333 35 87zM86.9971 693.005c-10.667 0 -21.667 2.33398 -33 7.00098c-14.667 5.33301 -22 12.666 -22 21.999v131c0 8.66699 5.5 16.667 16.5 24s21.167 11 30.5 11
c39.333 0 59 -31.667 59 -95c0 -32 -1.66699 -53.333 -5 -64c-6.66699 -24 -22 -36 -46 -36zM587.997 722.006c0 -4.66699 -4.66699 -10.667 -14 -18s-16.333 -11 -21 -11h-38c-6.66699 0 -13.167 5.83301 -19.5 17.5s-9.5 21.167 -9.5 28.5v108c0 10 6 19.333 18 28
s23.333 13 34 13c10 0 20.833 -3.16699 32.5 -9.5s17.5 -13.833 17.5 -22.5v-134z" />
    <glyph glyph-name="Oslash" unicode="&#xd8;" 
d="M588 442c0 -34.667 -9.00195 -73 -27.002 -115l-52 -106c-8.66699 -4 -21.334 -26 -38.001 -66c-18.667 -47.333 -37 -81.333 -55 -102c-30 -35.333 -67.667 -53 -113 -53c-23.333 0 -42.666 4.66699 -57.999 14c-8.66699 5.33301 -20 16.333 -34 33s-27 29 -39 37
c-9.33301 0 -21.833 -13 -37.5 -39s-35.167 -39 -58.5 -39c-14 0 -25.333 5 -34 15s-13 22.333 -13 37c0 21.333 12.667 48 38 80s38 58.667 38 80c0 12.667 -1 22.334 -3 29.001c-13.333 16 -28 41.333 -44 76c-18 38 -26.667 66 -26 84v27
c0.666992 40.667 8.33398 80.334 23.001 119.001c3.33301 8 21 44 53 108c0.666992 1.33301 9.33398 21.666 26.001 60.999c11.333 26 22 45.333 32 58c3.33301 3.33301 8 9 14 17c30 42 45.333 63.667 46 65c17.333 17.333 42 26 74 26h12c28 0 52.333 -6.66699 73 -20
c12 -8 26 -20.667 42 -38c12 -14 21 -21 27 -21c5.33301 4 17.333 19.667 36 47c13.333 19.333 29.333 29 48 29c33.333 0 50 -14.667 50 -44c0 -16 -4.5 -31.833 -13.5 -47.5s-18.167 -30.834 -27.5 -45.501l-35 -70v-6c0 -10.667 8 -31 24 -61l34 -61
c12 -24 18 -60 18 -108zM380.998 693l-27.001 55.001c-12.667 21.333 -28 32 -46 32c-16 0 -30.333 -12.667 -43 -38c-18.667 -34.667 -39 -76.334 -61 -125.001c-14.667 -18.667 -29.667 -45.667 -45 -81c-16.667 -38 -25 -67.333 -25 -88c0 -10 3 -26.333 9 -49
c4.66699 -8 11.334 -20.667 20.001 -38c1.33301 -4.66699 3 -9 5 -13s6 -5.66699 12 -5c12.667 10 24.667 25.333 36 46l28 53l77 124c40 66 60 105.333 60 118v9zM482.997 436.001c0 14 -4.33203 34.998 -12.999 62.998c-10.667 32 -21 48 -31 48
c-6.66699 0 -31.334 -36.333 -74.001 -109c-50 -86 -75.667 -130 -77 -132c-2 -9.33301 -11.167 -24.666 -27.5 -45.999s-24.5 -38 -24.5 -50c0 -15.333 8.16699 -35.666 24.5 -60.999s31.5 -38 45.5 -38c7.33301 0 13 0.666992 17 2c9.33301 2.66699 32 40.334 68 113.001
l66 135c3.33301 4 8.5 16.167 15.5 36.5s10.5 33.166 10.5 38.499z" />
    <glyph glyph-name="Uacute" unicode="&#xda;" 
d="M460 36c0 -8 -6.66602 -15.833 -19.999 -23.5s-24.333 -11.5 -33 -11.5h-85c-36 0 -67.667 1 -95 3c-27.333 14 -41 31.333 -41 52v127c0 28.667 2 48.667 6 60c7.33301 21.333 22.666 32 45.999 32h69c30.667 0.666992 53.667 1 69 1c56 0 84 -15 84 -45v-195z" />
    <glyph glyph-name="Udieresis" unicode="&#xdc;" 
d="M319 -2c-62.667 0 -98.334 0.332031 -107.001 0.999023c-48.667 2.66699 -82.334 9.66699 -101.001 21c-25.333 15.333 -45.333 36.5 -60 63.5s-22 55.5 -22 85.5v471c0 11.333 4.5 21 13.5 29s19.167 12 30.5 12c14 0 26.667 -3.66699 38 -11s17 -17.333 17 -30v-442
c4 -3.33301 6 -16.666 6 -39.999c0 -9.33301 3.5 -17.833 10.5 -25.5s14.167 -14.834 21.5 -21.501c9.33301 -4.66699 31.333 -8 66 -10c-2 0.666992 42 1 132 1c30 0 51.333 1 64 3c18 3.33301 30.667 14 38 32c8.66699 20.667 13.334 31.334 14.001 32.001
c4 32 6 48.333 6 49v419l16 34c5.33301 8.66699 17.333 13 36 13c33.333 0 50 -25.333 50 -76v-439c0 -46 -17.5 -85 -52.5 -117s-75.833 -49.333 -122.5 -52c-19.333 -1.33301 -50.666 -2 -93.999 -2zM242 729.999c0 -28.667 -16.667 -43 -50 -43
c-12 0 -22.833 4.33301 -32.5 13s-14.5 18.667 -14.5 30v105c0 12.667 5.5 23.167 16.5 31.5s23.167 12.5 36.5 12.5c8.66699 0 18.167 -2 28.5 -6s15.5 -9.66699 15.5 -17v-126zM471 729.999c0 -12.667 -10.667 -26 -32 -40c-1.33301 0 -4 -0.5 -8 -1.5s-7 -1.5 -9 -1.5
c-11.333 0 -21.333 2.66699 -30 8c-11.333 6 -17 14 -17 24v131c0 8 6.66699 15.667 20 23c11.333 6 21.333 9 30 9c10.667 0 21 -3.33301 31 -10s15 -15 15 -25v-117z" />
    <glyph glyph-name="tilde" unicode="&#x2dc;" 
d="M597 521c0 -10 -8.33398 -18.001 -25.001 -24.001c-12.667 -5.33301 -25 -8 -37 -8c-32.667 0 -49 26 -49 78c0 18.667 0.333008 47 1 85v84c0 20.667 -6.33301 33.334 -19 38.001c-5.33301 2 -21.666 3 -48.999 3c-23.333 0 -39.666 -5.66699 -48.999 -17
c0 -79.333 -0.666992 -203.333 -2 -372c-0.666992 -164 -1 -287.667 -1 -371c-7.33301 -11.333 -14.333 -17 -21 -17h-299c-2.66699 0 -6.33398 2.16699 -11.001 6.5s-7 7.83301 -7 10.5v338c0 10.667 6 21.167 18 31.5s23.333 15.5 34 15.5c12.667 0 25 -2.66699 37 -8
c14.667 -6.66699 22 -15.667 22 -27l-1 -222c0 -11.333 2 -20 6 -26l9 -6h90c10 0 15 44.667 15 134v623c7.33301 8 13 12 17 12h303c12 0 18 -3 18 -9v-352z" />
    <glyph glyph-name="quoteleft" unicode="&#x2018;" 
d="M428 854c0 -15.333 -3.99902 -33.9971 -11.999 -55.9971l-20 -55l-46 -139c-17.333 -54.667 -29 -102.334 -35 -143.001l-25 -48c-12 -18.667 -26 -28 -42 -28c-12.667 0 -27.334 10.667 -44.001 32v282c0 4.66699 0.5 11.667 1.5 21s1.5 16.666 1.5 21.999
c0 8.66699 -0.5 22.167 -1.5 40.5s-1.5 32.166 -1.5 41.499c0 52.667 13.667 79 41 79h122c15.333 0 29.333 -4.33301 42 -13s19 -20.667 19 -36z" />
    <glyph glyph-name="quoteright" unicode="&#x2019;" 
d="M428 854c0 -15.333 -3.99902 -33.9971 -11.999 -55.9971l-20 -55l-46 -139c-17.333 -54.667 -29 -102.334 -35 -143.001l-25 -48c-12 -18.667 -26 -28 -42 -28c-12.667 0 -27.334 10.667 -44.001 32v282c0 4.66699 0.5 11.667 1.5 21s1.5 16.666 1.5 21.999
c0 8.66699 -0.5 22.167 -1.5 40.5s-1.5 32.166 -1.5 41.499c0 52.667 13.667 79 41 79h122c15.333 0 29.333 -4.33301 42 -13s19 -20.667 19 -36z" />
    <glyph glyph-name="NULL" horiz-adv-x="0" 
 />
    <glyph glyph-name="glyph2" 
 />
    <glyph glyph-name="glyph117" horiz-adv-x="500" 
 />
    <glyph glyph-name=".null" horiz-adv-x="0" 
 />
    <glyph glyph-name="nonmarkingreturn" horiz-adv-x="500" 
 />
  </font>
</defs>
</svg>
